<svg id="Layer_3" enable-background="new 0 0 64 64" height="512" viewBox="0 0 64 64" width="512" xmlns="http://www.w3.org/2000/svg"><g><path d="m62 10h-60c-.553 0-1 .448-1 1v42c0 .552.447 1 1 1h60c.553 0 1-.448 1-1v-42c0-.552-.447-1-1-1zm-1 2v6h-2v-3c0-.552-.447-1-1-1h-52c-.553 0-1 .448-1 1v3h-2v-6zm-56 19h-2v-7h1c.552 0 1 .449 1 1zm0 2v6c0 1.654 1.346 3 3 3s3-1.346 3-3v-6h2v1c0 1.654 1.346 3 3 3s3-1.346 3-3v-1h2v4c0 1.654 1.346 3 3 3s3-1.346 3-3v-4h2v6c0 1.654 1.346 3 3 3s3-1.346 3-3v-6h2v1c0 1.654 1.346 3 3 3s3-1.346 3-3v-1h2v5c0 1.654 1.346 3 3 3s3-1.346 3-3v-5h2v1c0 1.654 1.346 3 3 3s3-1.346 3-3v-1h2v11h-58v-11zm2 0h2v6c0 .551-.448 1-1 1s-1-.449-1-1zm6-2h-2v-10c0-.551.448-1 1-1s1 .449 1 1zm2 2h2v1c0 .551-.448 1-1 1s-1-.449-1-1zm6-2h-2v-4c0-.551.448-1 1-1s1 .449 1 1zm2 2h2v4c0 .551-.448 1-1 1s-1-.449-1-1zm6-2h-2v-6c0-.551.448-1 1-1s1 .449 1 1zm2 2h2v6c0 .551-.448 1-1 1s-1-.449-1-1zm6-2h-2v-10c0-.551.448-1 1-1s1 .449 1 1zm2 2h2v1c0 .551-.448 1-1 1s-1-.449-1-1zm6-2h-2v-4c0-.551.448-1 1-1s1 .449 1 1zm2 2h2v5c0 .551-.448 1-1 1s-1-.449-1-1zm6-2h-2v-10c0-.551.448-1 1-1s1 .449 1 1zm2 2h2v1c0 .551-.448 1-1 1s-1-.449-1-1zm4-2v-2c0-.551.448-1 1-1h1v3zm1-5c-1.654 0-3 1.346-3 3v2h-2v-10c0-1.654-1.346-3-3-3s-3 1.346-3 3v10h-2v-4c0-1.654-1.346-3-3-3s-3 1.346-3 3v4h-2v-10c0-1.654-1.346-3-3-3s-3 1.346-3 3v10h-2v-6c0-1.654-1.346-3-3-3s-3 1.346-3 3v6h-2v-4c0-1.654-1.346-3-3-3s-3 1.346-3 3v4h-2v-10c0-1.654-1.346-3-3-3s-3 1.346-3 3v10h-2v-6c0-1.654-1.346-3-3-3h-1v-2h3c.553 0 1-.448 1-1v-3h50v3c0 .552.447 1 1 1h3v6zm-57 26v-6h58v6z"/><path d="m5 48h2v2h-2z"/><path d="m9 48h2v2h-2z"/><path d="m13 48h2v2h-2z"/></g></svg>