<svg id="Layer_3" enable-background="new 0 0 64 64" height="512" viewBox="0 0 64 64" width="512" xmlns="http://www.w3.org/2000/svg"><g><path d="m58 39h-1v-3c0-.277-.112-.527-.294-.708l-5.706-5.706v-3.586c0-2.757-2.243-5-5-5h-1-5c-.553 0-1 .448-1 1v13h-12v-9h7c1.654 0 3-1.346 3-3v-16c0-.552-.447-1-1-1h-4c-.553 0-1 .448-1 1v13h-6.54c.519-.578.926-1.254 1.19-2h2.35c1.103 0 2-.897 2-2v-4c0-.737-.405-1.375-1-1.722v-2.278c0-3.86-3.141-7-7-7h-4c-3.859 0-7 3.14-7 7v2.278c-.595.347-1 .985-1 1.722v4c0 1.103.897 2 2 2h2.35c.265.746.672 1.422 1.19 2h-1.54c-2.757 0-5 2.243-5 5v10h-1c-.553 0-1 .448-1 1v3h-1c-2.757 0-5 2.243-5 5v14c0 2.757 2.243 5 5 5h52c2.757 0 5-2.243 5-5v-14c0-2.757-2.243-5-5-5zm-7.586-4-6.086-6.086c-.212-.212-.328-.493-.328-.793 0-.618.503-1.121 1.121-1.121.295 0 .584.12.793.328l7.672 7.672zm-9.414-12h5c1.654 0 3 1.346 3 3v1.586l-1.672-1.672c-.581-.581-1.385-.914-2.207-.914-1.721 0-3.121 1.4-3.121 3.121 0 .834.324 1.618.914 2.207l4.672 4.672h-6.586zm-6-15v2h-2v-2zm-17 13.65c.627.223 1.298.35 2 .35s1.373-.128 2-.35v.35c0 1.103-.897 2-2 2s-2-.897-2-2zm-2-7.65h1c1.634 0 3.087-.788 4-2.003.721.96 1.782 1.646 3 1.895v2.108c0 2.206-1.794 4-4 4s-4-1.794-4-4zm8-2.171c-1.164-.413-2-1.525-2-2.829 0-.552-.447-1-1-1s-1 .448-1 1c0 1.654-1.346 3-3 3h-1v-4c0-.551.448-1 1-1h6c.552 0 1 .449 1 1zm4 4.171h-2v-3-1h2zm-10-13h4c2.757 0 5 2.243 5 5v2h-1v-2c0-1.654-1.346-3-3-3h-6c-1.654 0-3 1.346-3 3v2h-1v-2c0-2.757 2.243-5 5-5zm-6 13v-4h2v1 3zm-1 9c0-1.654 1.346-3 3-3h2c0 2.206 1.794 4 4 4s4-1.794 4-4h8c.553 0 1-.448 1-1v-9h2v11c0 .551-.448 1-1 1h-8c-.553 0-1 .448-1 1v10h-10v-10h-2v10h-2zm-2 12h46v2h-46zm52 21c0 1.654-1.346 3-3 3h-52c-1.654 0-3-1.346-3-3v-14c0-1.654 1.346-3 3-3h52c1.654 0 3 1.346 3 3z"/><path d="m51 15v-5.002c1.214-.914 2-2.366 2-3.998 0-.552-.447-1-1-1h-6v-3c0-.552-.447-1-1-1s-1 .448-1 1v3h-4c-.553 0-1 .448-1 1v9c0 3.309 2.691 6 6 6s6-2.691 6-6zm-.171-8c-.413 1.164-1.525 2-2.829 2h-2v-2zm-4.828 8h-2.001v-4h2zm-2.001-8v2c-1.103 0-2 .897-2 2v3.213c-.294.265-.631.467-1 .599v-7.812zm5 8c0 2.206-1.794 4-4 4-1.562 0-2.904-.909-3.562-2.217.374-.113.735-.264 1.073-.461.367.413.895.678 1.489.678h2c1.103 0 2-.897 2-2v-4c.343 0 .677-.035 1-.101z"/><path d="m32 46v3.677c-.716-.427-1.575-.677-2.5-.677-2.481 0-4.5 1.794-4.5 4s2.019 4 4.5 4 4.5-1.794 4.5-4v-6h4v-2h-5c-.553 0-1 .448-1 1zm-2.5 9c-1.379 0-2.5-.897-2.5-2s1.121-2 2.5-2 2.5.897 2.5 2-1.121 2-2.5 2z"/><path d="m5 43h2v2h-2z"/><path d="m57 43h2v2h-2z"/><path d="m5 57h2v2h-2z"/><path d="m57 57h2v2h-2z"/></g></svg>