<svg id="Layer_3" enable-background="new 0 0 64 64" height="512" viewBox="0 0 64 64" width="512" xmlns="http://www.w3.org/2000/svg"><g><path d="m11 5h2v2h-2z"/><path d="m11 1h2v2h-2z"/><path d="m11 9h2v2h-2z"/><path d="m15 9h2v2h-2z"/><path d="m15 13h2v2h-2z"/><path d="m11 57h2v2h-2z"/><path d="m11 53h2v2h-2z"/><path d="m11 61h2v2h-2z"/><path d="m19 17h2v2h-2z"/><path d="m19 13h2v2h-2z"/><path d="m15 49h2v2h-2z"/><path d="m15 53h2v2h-2z"/><path d="m19 45h2v2h-2z"/><path d="m19 49h2v2h-2z"/><path d="m25 5h2v2h-2z"/><path d="m25 1h2v2h-2z"/><path d="m25 9h2v2h-2z"/><path d="m29 9h2v2h-2z"/><path d="m29 13h2v2h-2z"/><path d="m25 57h2v2h-2z"/><path d="m25 53h2v2h-2z"/><path d="m25 61h2v2h-2z"/><path d="m33 17h2v2h-2z"/><path d="m33 13h2v2h-2z"/><path d="m29 49h2v2h-2z"/><path d="m29 53h2v2h-2z"/><path d="m33 45h2v2h-2z"/><path d="m33 49h2v2h-2z"/><path d="m49 24.734v-3.734h-2v4c0 .174.046.345.132.496l3.145 5.504h-1.697l-3.58-6.266v-7.734h-2v8c0 .174.046.345.132.496l3.145 5.504h-1.697l-3.58-6.266v-11.734h-2v12c0 .174.046.345.132.496l3.145 5.504h-3.697l-3.58-6.266v-3.734h-2v4c0 .174.046.345.132.496l3.145 5.504h-1.697l-3.58-6.266v-7.734h-2v8c0 .174.046.345.132.496l3.145 5.504h-1.697l-3.58-6.266v-11.734h-2v12c0 .174.046.345.132.496l3.145 5.504h-3.697l-3.58-6.266v-3.734h-2v4c0 .174.046.345.132.496l3.145 5.504h-1.697l-3.58-6.266v-7.734h-2v8c0 .174.046.345.132.496l3.145 5.504h-1.697l-3.58-6.266v-11.734h-2v12c0 .174.046.345.132.496l3.145 5.504h-13.277v2h13.277l-3.145 5.504c-.086.151-.132.322-.132.496v12h2v-11.734l3.58-6.266h1.697l-3.145 5.504c-.086.151-.132.322-.132.496v8h2v-7.734l3.58-6.266h1.697l-3.145 5.504c-.086.151-.132.322-.132.496v4h2v-3.734l3.58-6.266h3.697l-3.145 5.504c-.086.151-.132.322-.132.496v12h2v-11.734l3.58-6.266h1.697l-3.145 5.504c-.086.151-.132.322-.132.496v8h2v-7.734l3.58-6.266h1.697l-3.145 5.504c-.086.151-.132.322-.132.496v4h2v-3.734l3.58-6.266h3.697l-3.145 5.504c-.086.151-.132.322-.132.496v12h2v-11.734l3.58-6.266h1.697l-3.145 5.504c-.086.151-.132.322-.132.496v8h2v-7.734l3.58-6.266h1.697l-3.145 5.504c-.086.151-.132.322-.132.496v4h2v-3.734l3.58-6.266h10.42v-2h-10.42z"/><path d="m39 5h2v2h-2z"/><path d="m39 1h2v2h-2z"/><path d="m39 9h2v2h-2z"/><path d="m43 9h2v2h-2z"/><path d="m43 13h2v2h-2z"/><path d="m39 57h2v2h-2z"/><path d="m39 53h2v2h-2z"/><path d="m39 61h2v2h-2z"/><path d="m47 17h2v2h-2z"/><path d="m47 13h2v2h-2z"/><path d="m43 49h2v2h-2z"/><path d="m43 53h2v2h-2z"/><path d="m47 45h2v2h-2z"/><path d="m47 49h2v2h-2z"/><path d="m58 1c-.553 0-1 .448-1 1v3.677c-.716-.427-1.575-.677-2.5-.677-2.481 0-4.5 1.794-4.5 4s2.019 4 4.5 4 4.5-1.794 4.5-4v-6h4v-2zm-3.5 10c-1.379 0-2.5-.897-2.5-2s1.121-2 2.5-2 2.5.897 2.5 2-1.121 2-2.5 2z"/><path d="m57 52v3.677c-.716-.427-1.575-.677-2.5-.677-2.481 0-4.5 1.794-4.5 4s2.019 4 4.5 4 4.5-1.794 4.5-4v-6h4v-2h-5c-.553 0-1 .448-1 1zm-2.5 9c-1.379 0-2.5-.897-2.5-2s1.121-2 2.5-2 2.5.897 2.5 2-1.121 2-2.5 2z"/><path d="m5 54v3.184c-.314-.112-.648-.184-1-.184-1.654 0-3 1.346-3 3s1.346 3 3 3 3-1.346 3-3v-5h2v-2h-3c-.553 0-1 .448-1 1zm-1 7c-.552 0-1-.449-1-1s.448-1 1-1 1 .449 1 1-.448 1-1 1z"/><path d="m4 29c1.654 0 3-1.346 3-3v-5h2v-2h-3c-.553 0-1 .448-1 1v3.184c-.314-.112-.648-.184-1-.184-1.654 0-3 1.346-3 3s1.346 3 3 3zm0-4c.552 0 1 .449 1 1s-.448 1-1 1-1-.449-1-1 .448-1 1-1z"/></g></svg>