<svg id="Layer_3" enable-background="new 0 0 64 64" height="512" viewBox="0 0 64 64" width="512" xmlns="http://www.w3.org/2000/svg"><g><path d="m31 24h2v8h-2z"/><path d="m37 28c1.654 0 3-1.346 3-3v-1h-2v1c0 .551-.449 1-1 1s-1-.449-1-1v-1h-2v1c0 1.654 1.346 3 3 3z"/><path d="m27 28c1.654 0 3-1.346 3-3v-1h-2v1c0 .551-.449 1-1 1s-1-.449-1-1v-1h-2v1c0 1.654 1.346 3 3 3z"/><path d="m29 32h-2c0 2.757 2.243 5 5 5s5-2.243 5-5h-2c0 1.654-1.346 3-3 3s-3-1.346-3-3z"/><path d="m44 37h-2.221c1.775-1.736 3.08-3.94 3.736-6.409.44.253.943.409 1.485.409h2c1.654 0 3-1.346 3-3v-8c0-1.317-.859-2.427-2.042-2.829-.437-8.988-7.864-16.171-16.958-16.171h-2c-9.094 0-16.521 7.183-16.958 16.171-1.183.402-2.042 1.512-2.042 2.829v8c0 1.654 1.346 3 3 3h2c.542 0 1.045-.156 1.484-.409.657 2.469 1.962 4.673 3.736 6.409h-2.22c-4.962 0-9 4.037-9 9v16c0 .553.448 1 1 1h40c.552 0 1-.447 1-1v-16c0-4.963-4.038-9-9-9zm-18 2.63c1.822.869 3.851 1.37 6 1.37s4.178-.501 6-1.37v3.37c0 3.309-2.691 6-6 6s-6-2.691-6-6zm11.93-26.63c-.807 0-1.587.236-2.258.684l-.562.375c-1.848 1.231-4.371 1.231-6.219 0l-.562-.375c-.671-.448-1.452-.684-2.259-.684-2.244 0-4.07 1.826-4.07 4.07v1.93c0 1.302-.839 2.402-2 2.816v-1.816-6c0-2.757 2.243-5 5-5h14c2.757 0 5 2.243 5 5v6 1.816c-1.161-.414-2-1.514-2-2.816v-1.93c0-2.244-1.826-4.07-4.07-4.07zm12.07 15c0 .551-.449 1-1 1h-2c-.551 0-1-.449-1-1v-1-7c0-.551.449-1 1-1h2c.551 0 1 .449 1 1zm-19-25h2c7.933 0 14.431 6.195 14.949 14h-.949c-.352 0-.686.072-1 .184v-3.184c0-3.86-3.14-7-7-7h-14c-3.86 0-7 3.14-7 7v3.184c-.314-.112-.648-.184-1-.184h-.949c.518-7.805 7.016-14 14.949-14zm-13 25c0 .551-.449 1-1 1h-2c-.551 0-1-.449-1-1v-8c0-.551.449-1 1-1h2c.551 0 1 .449 1 1v7zm2-1v-3.101c1.226-.25 2.278-.96 3-1.93v.031h8v-2h-7.101c.066-.323.101-.658.101-1v-1.93c0-1.142.929-2.07 2.07-2.07.41 0 .807.12 1.148.348l.562.375c2.508 1.671 5.93 1.671 8.438 0l.562-.375c.343-.228.74-.348 1.15-.348 1.142 0 2.07.929 2.07 2.07v1.93c0 .342.035.677.101 1h-7.101v2h8v-.031c.722.97 1.774 1.68 3 1.93v3.101c0 6.617-5.383 12-12 12s-12-5.383-12-12zm-7 27h5v7h-5zm33 7v-7h5v7zm5-9h-5v-2h-2v11h-24v-11h-2v2h-5v-6c0-3.859 3.14-7 7-7h4v4c0 4.411 3.589 8 8 8s8-3.589 8-8v-4h4c3.86 0 7 3.141 7 7z"/><path d="m58 1c-.552 0-1 .448-1 1v5.556c-.591-.344-1.268-.556-2-.556-2.206 0-4 1.794-4 4s1.794 4 4 4 4-1.794 4-4v-8h4v-2zm-3 12c-1.103 0-2-.897-2-2s.897-2 2-2 2 .897 2 2-.897 2-2 2z"/><path d="m13 1h-5c-.552 0-1 .448-1 1v5.556c-.591-.344-1.268-.556-2-.556-2.206 0-4 1.794-4 4s1.794 4 4 4 4-1.794 4-4v-8h4zm-8 12c-1.103 0-2-.897-2-2s.897-2 2-2 2 .897 2 2-.897 2-2 2z"/></g></svg>