<svg id="Layer_3" enable-background="new 0 0 64 64" height="512" viewBox="0 0 64 64" width="512" xmlns="http://www.w3.org/2000/svg"><g><path d="m31 21c2.757 0 5-2.243 5-5s-2.243-5-5-5-5 2.243-5 5 2.243 5 5 5zm0-8c1.654 0 3 1.346 3 3s-1.346 3-3 3-3-1.346-3-3 1.346-3 3-3z"/><path d="m45 57.875-.03-.12-.01.003c-.004-.017.002-.035-.003-.051l-4-13c-.042-.135-.111-.259-.203-.365l-6.537-7.471 8.903-16.026c.575-1.037.88-2.213.88-3.4v-.522c0-1.467-.451-2.874-1.304-4.068l-3.883-5.436c-.312-.439-.92-.551-1.368-.251l-3 2c-.226.15-.38.385-.429.652-.049.266.013.541.17.761l4.599 6.438-3.32 4.981h-6.93l-3.669-5.503-3.972-7.944c-.128-.256-.36-.446-.638-.519s-.571-.024-.812.134l-.444.297v-2.132l2.8-3.733c.228-.303.264-.708.095-1.047-.17-.339-.516-.553-.895-.553h-6c-.379 0-.725.214-.895.553-.168.339-.132.744.095 1.047l2.8 3.733v3.465l-.555.37c-.401.268-.555.783-.364 1.226l3 7c.023.056.053.11.087.161l5.445 8.167c.253.381.387.822.387 1.278s-.134.897-.387 1.277l-1.598 2.397c-1.318 1.977-2.015 4.279-2.015 6.657v.196c0 1.068.143 2.131.44 3.215l5.56 16.423v4.835h2v-4h2.278c.88 2.38 3.135 4 5.722 4v-2c-1.896 0-3.54-1.284-4-3.125l-.029-.113-3.274-13.915 6.438 5.723 2.865 8.591v4.839h2v-4h2.278c.88 2.38 3.135 4 5.722 4v-2c-1.896 0-3.54-1.284-4-3.125zm-26-54.875-1 1.333-1-1.333zm1.883 14.521-2.636-6.151 1.365-.91 3.493 6.987c.019.037.039.073.062.107l4 6c.187.279.499.446.833.446h8c.334 0 .646-.167.832-.445l4-6c.23-.346.224-.798-.019-1.136l-4.399-6.16 1.335-.89 3.32 4.647c.609.854.931 1.859.931 2.907v.522c0 .848-.218 1.688-.629 2.428l-3.404 6.127h-11.471c-.069-.131-.136-.263-.219-.387zm9.854 39.479h-2.021l-3.826-11.301 3.068-.511zm-2.073-16.748c-.325-.29-.803-.334-1.176-.111-.375.223-.562.664-.462 1.088l.472 2.008-3.258.543-.888-2.622c-.234-.856-.352-1.741-.352-2.631v-.196c0-1.981.581-3.899 1.68-5.547l1.598-2.397c.472-.71.722-1.535.722-2.387h9.856l-4.73 8.514c-.205.369-.156.827.121 1.145l2.885 3.296-3.389 2.034zm12.057 16.748-2.772-8.316c-.055-.166-.153-.314-.284-.431l-4.355-3.871 3.161-1.897 2.637 3.014 3.538 11.501z"/><path d="m58 1c-.553 0-1 .448-1 1v3.677c-.716-.427-1.575-.677-2.5-.677-2.481 0-4.5 1.794-4.5 4s2.019 4 4.5 4 4.5-1.794 4.5-4v-6h4v-2zm-3.5 10c-1.379 0-2.5-.897-2.5-2s1.121-2 2.5-2 2.5.897 2.5 2-1.121 2-2.5 2z"/><path d="m51 25v3.677c-.716-.427-1.575-.677-2.5-.677-2.481 0-4.5 1.794-4.5 4s2.019 4 4.5 4 4.5-1.794 4.5-4v-6h4v-2h-5c-.553 0-1 .448-1 1zm-2.5 9c-1.379 0-2.5-.897-2.5-2s1.121-2 2.5-2 2.5.897 2.5 2-1.121 2-2.5 2z"/><path d="m10 26h4v-2h-5c-.553 0-1 .448-1 1v3.677c-.716-.427-1.575-.677-2.5-.677-2.481 0-4.5 1.794-4.5 4s2.019 4 4.5 4 4.5-1.794 4.5-4zm-4.5 8c-1.379 0-2.5-.897-2.5-2s1.121-2 2.5-2 2.5.897 2.5 2-1.121 2-2.5 2z"/><path d="m16 52v3.677c-.716-.427-1.575-.677-2.5-.677-2.481 0-4.5 1.794-4.5 4s2.019 4 4.5 4 4.5-1.794 4.5-4v-6h4v-2h-5c-.553 0-1 .448-1 1zm-2.5 9c-1.379 0-2.5-.897-2.5-2s1.121-2 2.5-2 2.5.897 2.5 2-1.121 2-2.5 2z"/></g></svg>