<svg id="Layer_3" enable-background="new 0 0 64 64" height="512" viewBox="0 0 64 64" width="512" xmlns="http://www.w3.org/2000/svg"><g><path d="m25 57h14v2h-14z"/><path d="m21 57h2v2h-2z"/><path d="m17 57h2v2h-2z"/><path d="m45 57h2v2h-2z"/><path d="m41 57h2v2h-2z"/><path d="m45 53h2v2h-2z"/><path d="m41 53h2v2h-2z"/><path d="m37 53h2v2h-2z"/><path d="m33 53h2v2h-2z"/><path d="m29 53h2v2h-2z"/><path d="m25 53h2v2h-2z"/><path d="m21 53h2v2h-2z"/><path d="m17 53h2v2h-2z"/><path d="m45 49h2v2h-2z"/><path d="m41 49h2v2h-2z"/><path d="m37 49h2v2h-2z"/><path d="m33 49h2v2h-2z"/><path d="m29 49h2v2h-2z"/><path d="m25 49h2v2h-2z"/><path d="m21 49h2v2h-2z"/><path d="m17 49h2v2h-2z"/><path d="m50 45h-36c-.552 0-1 .447-1 1v16c0 .553.448 1 1 1h36c.552 0 1-.447 1-1v-16c0-.553-.448-1-1-1zm-1 16h-34v-14h34z"/><path d="m54 1h-44c-1.654 0-3 1.346-3 3v26c0 1.654 1.346 3 3 3h19v2h-7c-2.757 0-5 2.243-5 5v2c0 .553.448 1 1 1h28c.552 0 1-.447 1-1v-2c0-2.757-2.243-5-5-5h-7v-2h19c1.654 0 3-1.346 3-3v-26c0-1.654-1.346-3-3-3zm-44 2h44c.551 0 1 .449 1 1v23h-46v-23c0-.551.449-1 1-1zm35 37v1h-26v-1c0-1.654 1.346-3 3-3h20c1.654 0 3 1.346 3 3zm-12-5h-2v-2h2zm21-4h-44c-.551 0-1-.449-1-1v-1h46v1c0 .551-.449 1-1 1z"/><path d="m20.895 17.447.74-1.481 1.389 6.25c.104.47.525.803 1.009.783.48-.016.882-.372.955-.848l1.109-7.207 1.92 10.239c.089.475.503.817.983.817h.014c.487-.007.898-.363.974-.844l2.039-12.913 1.987 11.922c.079.474.483.824.963.835.479.036.901-.32 1.001-.79l2.139-9.981 1.918 7.035c.116.425.497.724.937.736.439.009.837-.265.977-.683l2.137-6.41.986 2.465c.152.379.519.628.928.628h7v-2h-6.323l-1.749-4.372c-.156-.389-.551-.656-.958-.628-.419.012-.787.285-.919.683l-1.956 5.867-2.131-7.813c-.121-.445-.528-.774-.991-.737-.461.013-.854.339-.951.79l-1.899 8.864-2.137-12.819c-.08-.482-.497-.835-.986-.835-.001 0-.003 0-.004 0-.49.002-.907.359-.983.844l-2.097 13.279-1.933-10.307c-.09-.479-.495-.804-.999-.816-.488.008-.898.366-.972.848l-1.19 7.737-.845-3.802c-.092-.414-.434-.724-.854-.776-.417-.046-.827.167-1.017.545l-1.724 3.448h-8.382v2h9c.379 0 .725-.214.895-.553z"/></g></svg>