<svg id="Layer_3" enable-background="new 0 0 64 64" height="512" viewBox="0 0 64 64" width="512" xmlns="http://www.w3.org/2000/svg"><g><path d="m29 13v1.363c-5.724 1.36-10 6.503-10 12.637 0 7.168 5.832 13 13 13s13-5.832 13-13c0-6.134-4.276-11.277-10-12.637v-1.363c0-1.302-.839-2.402-2-2.816v-9.184h-2v9.184c-1.161.414-2 1.514-2 2.816zm.354 3.822c-.433 1.192-.74 2.657-.952 4.178h-2.262c.774-1.858 1.892-3.326 3.214-4.178zm2.646 21.147c-.48-.359-1.159-2.092-1.589-4.969h3.178c-.43 2.877-1.109 4.61-1.589 4.969zm-1.825-6.969c-.083-.92-.141-1.919-.163-3h3.976c-.022 1.081-.08 2.08-.163 3zm-.163-5c.022-1.081.08-2.08.163-3h3.65c.083.92.141 1.919.163 3zm.399-5c.43-2.877 1.109-4.61 1.589-4.969.48.359 1.159 2.092 1.589 4.969zm-2.235 2c-.091 1.039-.142 2.061-.164 3h-2.98c.061-1.05.218-2.055.454-3zm-5.141 3h-1.984c.095-1.05.343-2.055.713-3h1.677c-.215.956-.351 1.962-.406 3zm-1.984 2h1.984c.055 1.038.191 2.044.405 3h-1.677c-.37-.945-.617-1.95-.712-3zm3.981 0h2.98c.021.939.073 1.961.164 3h-2.69c-.236-.945-.393-1.95-.454-3zm3.37 5c.212 1.522.519 2.986.952 4.178-1.322-.852-2.441-2.32-3.214-4.178zm6.244 4.178c.433-1.192.74-2.657.952-4.178h2.262c-.774 1.858-1.892 3.326-3.214 4.178zm1.178-6.178c.091-1.039.142-2.061.164-3h2.98c-.061 1.05-.218 2.055-.454 3zm5.141-3h1.984c-.095 1.05-.343 2.055-.713 3h-1.676c.214-.956.35-1.962.405-3zm1.984-2h-1.984c-.055-1.038-.191-2.044-.405-3h1.677c.37.945.617 1.95.712 3zm-3.981 0h-2.98c-.021-.939-.073-1.961-.164-3h2.69c.236.945.393 1.95.454 3zm-3.37-5c-.212-1.522-.519-2.986-.952-4.178 1.322.852 2.441 2.32 3.214 4.178zm-10.233-2.753c-.525.829-.978 1.75-1.341 2.753h-1.232c.694-1.06 1.567-1.988 2.573-2.753zm-2.573 14.753h1.232c.363 1.003.817 1.925 1.341 2.753-1.006-.765-1.879-1.693-2.573-2.753zm15.843 2.753c.525-.829.978-1.75 1.341-2.753h1.232c-.694 1.06-1.567 1.988-2.573 2.753zm2.573-14.753h-1.232c-.363-1.003-.817-1.925-1.341-2.753 1.006.765 1.879 1.693 2.573 2.753zm-9.208-9c.551 0 1 .448 1 1v1.051c-.331-.026-.662-.051-1-.051s-.669.025-1 .051v-1.051c0-.552.449-1 1-1z"/><path d="m55 41.426v-1.426c0-1.302-.839-2.402-2-2.816v-36.184h-2v36.184c-1.161.414-2 1.514-2 2.816v1.426c-4.61 1.31-8 5.549-8 10.574 0 6.065 4.935 11 11 11s11-4.935 11-11c0-5.024-3.39-9.263-8-10.574zm-.014 9.574c-.011-.714-.033-1.384-.067-2h1.778c.13.64.224 1.308.269 2zm-3.892 4c-.04-.618-.064-1.295-.078-2h1.969c-.014.705-.038 1.382-.078 2zm1.624 2c-.2 1.639-.473 2.83-.718 3.498-.245-.668-.518-1.859-.718-3.498zm-1.702-6c.014-.705.038-1.382.078-2h1.813c.04.618.064 1.295.078 2zm.266-4c.2-1.639.473-2.83.718-3.498.245.668.518 1.859.718 3.498zm3.477 0c-.137-1.242-.324-2.236-.539-3.019.765.704 1.426 1.747 1.909 3.019zm-4.979-3.019c-.215.783-.402 1.777-.539 3.019h-1.37c.483-1.273 1.144-2.315 1.909-3.019zm-.699 5.019c-.034.616-.056 1.286-.067 2h-1.98c.045-.692.138-1.36.269-2zm-4.05 2h-1.972c.077-.695.24-1.362.466-2h1.736c-.113.644-.192 1.311-.23 2zm-1.972 2h1.972c.038.689.117 1.356.23 2h-1.736c-.227-.638-.389-1.305-.466-2zm3.976 0h1.98c.011.714.033 1.384.067 2h-1.778c-.131-.64-.224-1.308-.269-2zm2.206 4c.137 1.242.324 2.236.539 3.019-.765-.704-1.426-1.747-1.909-3.019zm4.979 3.019c.215-.783.402-1.777.539-3.019h1.37c-.483 1.273-1.144 2.315-1.909 3.019zm.699-5.019c.034-.616.056-1.286.067-2h1.98c-.045.692-.138 1.36-.269 2zm4.05-2h1.972c-.077.695-.24 1.362-.466 2h-1.736c.113-.644.192-1.311.23-2zm0-2c-.038-.689-.117-1.356-.23-2h1.736c.227.638.389 1.305.466 2zm.509-4h-1.225c-.262-.823-.587-1.583-.966-2.268.855.624 1.601 1.388 2.191 2.268zm-8.478-7c0-.552.449-1 1-1s1 .448 1 1v1.051c-.33-.03-.662-.051-1-.051s-.67.021-1 .051zm-4.287 4.732c-.38.684-.704 1.444-.966 2.268h-1.225c.59-.88 1.336-1.644 2.191-2.268zm-2.191 12.268h1.225c.262.823.587 1.583.966 2.268-.855-.624-1.601-1.388-2.191-2.268zm12.765 2.268c.38-.684.704-1.444.966-2.268h1.225c-.59.88-1.336 1.644-2.191 2.268z"/><path d="m15 41.426v-1.426c0-1.302-.839-2.402-2-2.816v-36.184h-2v36.184c-1.161.414-2 1.514-2 2.816v1.426c-4.61 1.311-8 5.55-8 10.574 0 6.065 4.935 11 11 11s11-4.935 11-11c0-5.024-3.39-9.263-8-10.574zm-.014 9.574c-.011-.714-.033-1.384-.067-2h1.778c.13.64.224 1.308.269 2zm-3.892 4c-.04-.618-.064-1.295-.078-2h1.969c-.014.705-.038 1.382-.078 2zm1.624 2c-.2 1.639-.473 2.83-.718 3.498-.245-.668-.518-1.859-.718-3.498zm-1.702-6c.014-.705.038-1.382.078-2h1.813c.04.618.064 1.295.078 2zm.266-4c.2-1.639.473-2.83.718-3.498.245.668.518 1.859.718 3.498zm3.477 0c-.137-1.242-.324-2.236-.539-3.019.765.704 1.426 1.747 1.909 3.019zm-4.979-3.019c-.215.783-.402 1.777-.539 3.019h-1.37c.483-1.273 1.144-2.315 1.909-3.019zm-.699 5.019c-.034.616-.056 1.286-.067 2h-1.98c.045-.692.138-1.36.269-2zm-4.05 2h-1.972c.077-.695.24-1.362.466-2h1.736c-.113.644-.192 1.311-.23 2zm-1.972 2h1.972c.038.689.117 1.356.23 2h-1.736c-.227-.638-.389-1.305-.466-2zm3.976 0h1.98c.011.714.033 1.384.067 2h-1.778c-.131-.64-.224-1.308-.269-2zm2.206 4c.137 1.242.324 2.236.539 3.019-.765-.704-1.426-1.746-1.909-3.019zm4.979 3.019c.215-.783.402-1.777.539-3.019h1.37c-.483 1.273-1.144 2.315-1.909 3.019zm.699-5.019c.034-.616.056-1.286.067-2h1.98c-.045.692-.138 1.36-.269 2zm4.05-2h1.972c-.077.695-.24 1.362-.466 2h-1.736c.113-.644.192-1.311.23-2zm0-2c-.038-.689-.117-1.356-.23-2h1.736c.227.638.389 1.305.466 2zm.509-4h-1.225c-.262-.823-.587-1.583-.966-2.268.855.624 1.601 1.388 2.191 2.268zm-8.478-7c0-.552.449-1 1-1s1 .448 1 1v1.051c-.33-.03-.662-.051-1-.051s-.67.021-1 .051zm-4.287 4.732c-.379.685-.704 1.445-.966 2.268h-1.225c.59-.88 1.336-1.644 2.191-2.268zm-2.191 12.268h1.225c.262.823.587 1.583.966 2.268-.855-.624-1.601-1.388-2.191-2.268zm12.765 2.268c.38-.684.704-1.444.966-2.268h1.225c-.59.88-1.336 1.644-2.191 2.268z"/><path d="m38 48c-2.757 0-5-2.243-5-5 0-.553-.448-1-1-1s-1 .447-1 1c0 2.757-2.243 5-5 5-.552 0-1 .447-1 1s.448 1 1 1c2.757 0 5 2.243 5 5 0 .553.448 1 1 1s1-.447 1-1c0-2.757 2.243-5 5-5 .552 0 1-.447 1-1s-.448-1-1-1zm-6 3.397c-.591-.98-1.417-1.807-2.397-2.397.981-.591 1.806-1.417 2.397-2.397.591.98 1.417 1.807 2.397 2.397-.98.591-1.806 1.417-2.397 2.397z"/><path d="m16 9c2.757 0 5 2.243 5 5 0 .553.448 1 1 1s1-.447 1-1c0-2.757 2.243-5 5-5 .552 0 1-.447 1-1s-.448-1-1-1c-2.757 0-5-2.243-5-5 0-.553-.448-1-1-1s-1 .447-1 1c0 2.757-2.243 5-5 5-.552 0-1 .447-1 1s.448 1 1 1zm6-3.397c.591.98 1.417 1.807 2.397 2.397-.98.591-1.806 1.417-2.397 2.397-.591-.98-1.417-1.806-2.397-2.397.98-.591 1.806-1.417 2.397-2.397z"/><path d="m36 9c2.757 0 5 2.243 5 5 0 .553.448 1 1 1s1-.447 1-1c0-2.757 2.243-5 5-5 .552 0 1-.447 1-1s-.448-1-1-1c-2.757 0-5-2.243-5-5 0-.553-.448-1-1-1s-1 .447-1 1c0 2.757-2.243 5-5 5-.552 0-1 .447-1 1s.448 1 1 1zm6-3.397c.591.98 1.417 1.807 2.397 2.397-.98.591-1.806 1.417-2.397 2.397-.591-.98-1.417-1.806-2.397-2.397.98-.591 1.806-1.417 2.397-2.397z"/></g></svg>