<svg id="Layer_3" enable-background="new 0 0 64 64" height="512" viewBox="0 0 64 64" width="512" xmlns="http://www.w3.org/2000/svg"><g><path d="m54 1h-44c-4.962 0-9 4.038-9 9v44c0 4.962 4.038 9 9 9h44c4.962 0 9-4.038 9-9v-44c0-4.962-4.038-9-9-9zm-44 60c-.34 0-.672-.033-1-.08v-12.92c0-1.654 1.346-3 3-3h40c1.654 0 3 1.346 3 3v12.92c-.328.047-.66.08-1 .08zm16-33h-9c-.551 0-1-.449-1-1v-11h2v9c0 .552.448 1 1 1h9c0 2.206 1.794 4 4 4s4-1.794 4-4h9c.552 0 1-.448 1-1v-9h2v11c0 .551-.449 1-1 1h-9c-.552 0-1 .448-1 1v10h-3c-.552 0-1 .448-1 1v3h-2v-3c0-.552-.448-1-1-1h-3v-10c0-.552-.448-1-1-1zm-8-14h-2v-2h2zm18 1.829c-1.164-.413-2-1.525-2-2.829 0-.552-.448-1-1-1s-1 .448-1 1c0 1.654-1.346 3-3 3h-1v-4c0-.551.449-1 1-1h6c.551 0 1 .449 1 1zm2 1.171v-1h2v4h-2zm1-3h-1v-2c0-1.654-1.346-3-3-3h-6c-1.654 0-3 1.346-3 3v2h-1v-2c0-2.757 2.243-5 5-5h4c2.757 0 5 2.243 5 5zm-15 2h2v1 3h-2zm5 2c1.634 0 3.087-.788 4-2.003.721.96 1.782 1.646 3 1.895v2.108c0 2.206-1.794 4-4 4s-4-1.794-4-4v-2zm1 7.65c.627.223 1.298.35 2 .35s1.373-.128 2-.35v.35c0 1.103-.897 2-2 2s-2-.897-2-2zm18-11.65h-2v-2h2zm1 29h-14v-2h14zm-20-2v2h-14v-2zm32 13c0 2.785-1.639 5.189-4 6.315v-12.315c0-2.757-2.243-5-5-5h-1v-3c0-.552-.448-1-1-1h-11v-9h8c1.654 0 3-1.346 3-3v-16c0-.552-.448-1-1-1h-4c-.552 0-1 .448-1 1v13h-7.54c.519-.578.926-1.254 1.19-2h2.35c1.103 0 2-.897 2-2v-4c0-.737-.405-1.375-1-1.722v-2.278c0-3.86-3.14-7-7-7h-4c-3.86 0-7 3.14-7 7v2.278c-.595.347-1 .985-1 1.722v4c0 1.103.897 2 2 2h2.35c.265.746.672 1.422 1.19 2h-7.54v-13c0-.552-.448-1-1-1h-4c-.552 0-1 .448-1 1v16c0 1.654 1.346 3 3 3h8v9h-11c-.552 0-1 .448-1 1v3h-1c-.342 0-.677.035-1 .101v-7.101c0-.551.449-1 1-1h1.184c.414 1.161 1.514 2 2.816 2h2c1.654 0 3-1.346 3-3s-1.346-3-3-3h-2c-1.302 0-2.402.839-2.816 2h-1.184c-1.654 0-3 1.346-3 3v8.026c-1.207.913-2 2.347-2 3.974v12.315c-2.361-1.126-4-3.53-4-6.315v-44c0-3.86 3.14-7 7-7h44c3.86 0 7 3.14 7 7zm-46-20c0-.551.449-1 1-1h2c.551 0 1 .449 1 1s-.449 1-1 1h-2c-.551 0-1-.449-1-1z"/><path d="m32 48v3.677c-.716-.427-1.575-.677-2.5-.677-2.481 0-4.5 1.794-4.5 4s2.019 4 4.5 4 4.5-1.794 4.5-4v-6h4v-2h-5c-.552 0-1 .448-1 1zm-2.5 9c-1.378 0-2.5-.897-2.5-2s1.122-2 2.5-2 2.5.897 2.5 2-1.122 2-2.5 2z"/><path d="m49 47h2v2h-2z"/><path d="m49 51h2v2h-2z"/><path d="m51 49h2v2h-2z"/><path d="m47 49h2v2h-2z"/><path d="m43 53h2v2h-2z"/><path d="m43 57h2v2h-2z"/><path d="m45 55h2v2h-2z"/><path d="m41 55h2v2h-2z"/><path d="m13 47h2v2h-2z"/><path d="m13 51h2v2h-2z"/><path d="m11 49h2v2h-2z"/><path d="m15 49h2v2h-2z"/><path d="m19 53h2v2h-2z"/><path d="m19 57h2v2h-2z"/><path d="m17 55h2v2h-2z"/><path d="m21 55h2v2h-2z"/></g></svg>