<svg id="Layer_3" enable-background="new 0 0 64 64" height="512" viewBox="0 0 64 64" width="512" xmlns="http://www.w3.org/2000/svg"><g><path d="m32 35c-6.617 0-12 5.383-12 12s5.383 12 12 12 12-5.383 12-12-5.383-12-12-12zm0 22c-5.514 0-10-4.486-10-10s4.486-10 10-10 10 4.486 10 10-4.486 10-10 10z"/><path d="m63 32v-2h-9v-8.132l6.142-.877-.283-1.98-5.859.836v-1.979l6.142-.877-.283-1.98-5.859.836v-2.847h-2v3.132l-3 .429v-3.561c0-1.302-.839-2.402-2-2.816v-9.184h-2v9.184c-1.161.414-2 1.514-2 2.816v7h-6.54c.519-.578.926-1.254 1.19-2h2.35c1.103 0 2-.897 2-2v-4c0-.737-.405-1.375-1-1.722v-2.278c0-3.859-3.14-7-7-7h-4c-3.86 0-7 3.141-7 7v2.278c-.595.347-1 .985-1 1.722v4c0 1.103.897 2 2 2h2.35c.265.746.672 1.422 1.19 2h-12.54c-1.302 0-2.402.839-2.816 2h-3.184v-4.847l5.858.837.283-1.98-6.141-.878v-1.979l5.858.837.283-1.98-6.141-.878v-3.132h-2v2.847l-5.858-.837-.283 1.98 6.141.878v1.979l-5.858-.837-.283 1.98 6.141.878v5.132h-3v2h3v6h-6v2h2v8h-2v2h9v17h-5c-.552 0-1 .447-1 1v3h2v-2h10v2h2v-3c0-.553-.448-1-1-1h-5v-17h4.811c-.52 1.575-.811 3.253-.811 5 0 4.814 2.147 9.128 5.522 12.064l-2.229 2.229 1.414 1.414 2.409-2.409c2.544 1.704 5.599 2.702 8.884 2.702s6.34-.998 8.884-2.702l2.409 2.409 1.414-1.414-2.229-2.229c3.375-2.936 5.522-7.25 5.522-12.064 0-1.747-.291-3.425-.811-5h4.811v17h-5c-.552 0-1 .447-1 1v3h2v-2h10v2h2v-3c0-.553-.448-1-1-1h-5v-17h9v-2h-2v-8zm-11-13.847v1.979l-3 .429v-1.979zm-6-6.153c.551 0 1 .448 1 1v1h-2v-1c0-.552.449-1 1-1zm-2 10c.552 0 1-.447 1-1v-5h2v.847l-1.142.163.283 1.98.859-.122v1.979l-1.142.163.283 1.98.859-.122v.132c0 .552-.449 1-1 1h-8c-.552 0-1 .447-1 1v6.811c-1.575-.52-3.253-.811-5-.811s-3.425.291-5 .811v-6.811c0-.553-.448-1-1-1h-8v-2h10c0 2.206 1.794 4 4 4s4-1.794 4-4zm-16-8h1c1.634 0 3.087-.788 4-2.003.721.96 1.782 1.646 3 1.895v2.108c0 2.206-1.794 4-4 4s-4-1.794-4-4zm8-2.171c-1.164-.413-2-1.525-2-2.829 0-.553-.448-1-1-1s-1 .447-1 1c0 1.654-1.346 3-3 3h-1v-4c0-.552.449-1 1-1h6c.551 0 1 .448 1 1zm-6 9.821c.627.223 1.298.35 2 .35s1.373-.128 2-.35v.35c0 1.103-.897 2-2 2s-2-.897-2-2zm10-5.65h-2v-3-1h2zm-10-13h4c2.757 0 5 2.243 5 5v2h-1v-2c0-1.654-1.346-3-3-3h-6c-1.654 0-3 1.346-3 3v2h-1v-2c0-2.757 2.243-5 5-5zm-6 13v-4h2v1 3zm-9 6h1v2h-1c-.551 0-1-.448-1-1s.449-1 1-1zm-10 10h3v2h2v-2h2v2h2v-2h3v8h-3v-2h-2v2h-2v-2h-2v2h-3zm14 0h2v-2h-12v-6h3.184c.414 1.161 1.514 2 2.816 2h10v6.635c-2.397 1.173-4.457 2.921-6 5.073zm13 29c-7.72 0-14-6.28-14-14s6.28-14 14-14 14 6.28 14 14-6.28 14-14 14zm7-28.365v-6.635h7c1.654 0 3-1.346 3-3v-.418l3-.429v7.847h-9v2h2v5.708c-1.543-2.152-3.603-3.9-6-5.073zm20 7.365h-3v-2h-2v2h-2v-2h-2v2h-3v-8h3v2h2v-2h2v2h2v-2h3z"/></g></svg>