<svg id="Layer_3" enable-background="new 0 0 64 64" height="512" viewBox="0 0 64 64" width="512" xmlns="http://www.w3.org/2000/svg"><g><path d="m62 1h-60c-.553 0-1 .447-1 1v42c0 .553.447 1 1 1h19.586l3.414 3.414v4.586h-13c-.553 0-1 .447-1 1v9h2v-8h38v8h2v-9c0-.553-.447-1-1-1h-13v-4.586l3.414-3.414h19.586c.553 0 1-.447 1-1v-42c0-.553-.447-1-1-1zm-50 34.414 2 2v5.586h-2zm3-3 1.586 1.586-1.586 1.586-1.586-1.586zm3 10.586h-2v-3.586l2 2zm19.293 4.293c-.188.187-.293.441-.293.707v5h-10v-5c0-.266-.105-.52-.293-.707l-10.293-10.293 1.586-1.586 7.293 7.293c.187.188.441.293.707.293h2c0 2.206 1.794 4 4 4s4-1.794 4-4h2c.266 0 .52-.105.707-.293l7.293-7.293 1.586 1.586zm-11.293-12.293c0 .552-.448 1-1 1s-1-.448-1-1v-2c0-.552.448-1 1-1s1 .448 1 1zm-.911-4.991c.475-2.838 2.941-5.009 5.911-5.009h2c2.97 0 5.436 2.171 5.911 5.009-.32.01-.624.073-.911.175v-.184c0-1.654-1.346-3-3-3h-6c-1.654 0-3 1.346-3 3v.184c-.287-.102-.591-.165-.911-.175zm12.911 2.991c0-.552.448-1 1-1s1 .448 1 1v2c0 .552-.448 1-1 1s-1-.448-1-1zm-10 0v-3c0-.552.448-1 1-1h6c.552 0 1 .448 1 1v3 2 2c0 2.206-1.794 4-4 4s-4-1.794-4-4v-2zm2 9.65c.627.223 1.298.35 2 .35s1.373-.128 2-.35v.35c0 1.103-.897 2-2 2s-2-.897-2-2zm19-10.236 1.586 1.586-1.586 1.586-1.586-1.586zm12 10.586h-4v-20h-2v20h-2v-6h-2v6h-6.586l8.293-8.293c.195-.195.293-.451.293-.707v-5h-2v2.586l-1.293-1.293c-.195-.195-.451-.293-.707-.293v-3h-2v4.586l-9.414 9.414h-1.126c.786-.875 1.318-1.98 1.481-3.203.33.126.685.203 1.059.203 1.654 0 3-1.346 3-3v-2c0-.889-.396-1.68-1.012-2.229-.083-2.913-1.724-5.441-4.124-6.771h.136v-9h-2v8.263c-.641-.166-1.308-.263-2-.263v-4h-2v4c-.692 0-1.359.097-2 .263v-8.263h-2v9.082c-2.325 1.35-3.907 3.832-3.988 6.688-.616.55-1.012 1.341-1.012 2.23v2c0 1.654 1.346 3 3 3 .374 0 .729-.077 1.059-.203.163 1.223.695 2.327 1.481 3.203h-1.126l-6.414-6.414v-7.586h-2v5.586l-2-2v-5.586h-2v5.586l-2.414 2.414h-1.586v10h-2v-20h-2v20h-3v-40h58z"/><path d="m6 19h2v2h-2z"/><path d="m6 15h2v2h-2z"/><path d="m6 11h2v2h-2z"/><path d="m6 7h2v2h-2z"/><path d="m18 23h2v2h-2z"/><path d="m18 19h2v2h-2z"/><path d="m22 23h2v2h-2z"/><path d="m22 19h2v2h-2z"/><path d="m22 15h2v2h-2z"/><path d="m22 11h2v2h-2z"/><path d="m22 7h2v2h-2z"/><path d="m27 11h2v2h-2z"/><path d="m27 7h2v2h-2z"/><path d="m31 15h2v2h-2z"/><path d="m35 11h2v2h-2z"/><path d="m35 7h2v2h-2z"/><path d="m39 15h2v6h-2z"/><path d="m39 11h2v2h-2z"/><path d="m43 23h2v8h-2z"/><path d="m43 19h2v2h-2z"/><path d="m47 23h2v2h-2z"/><path d="m47 19h2v2h-2z"/><path d="m47 15h2v2h-2z"/><path d="m47 11h2v2h-2z"/><path d="m51 25h2v2h-2z"/><path d="m51 21h2v2h-2z"/><path d="m51 17h2v2h-2z"/><path d="m55 19h2v2h-2z"/><path d="m55 15h2v2h-2z"/><path d="m55 11h2v2h-2z"/><path d="m55 7h2v2h-2z"/><path d="m14 21h2v2h-2z"/><path d="m14 17h2v2h-2z"/><path d="m14 13h2v2h-2z"/><path d="m14 9h2v2h-2z"/><path d="m10 29h2v2h-2z"/><path d="m10 25h2v2h-2z"/><path d="m10 21h2v2h-2z"/><path d="m10 17h2v2h-2z"/></g></svg>