<svg id="Layer_3" enable-background="new 0 0 64 64" height="512" viewBox="0 0 64 64" width="512" xmlns="http://www.w3.org/2000/svg"><g><path d="m28 1c-14.888 0-27 12.112-27 27 0 9.713 5.158 18.243 12.877 23h-4.877c-.553 0-1 .447-1 1v3.677c-.716-.427-1.575-.677-2.5-.677-2.481 0-4.5 1.794-4.5 4s2.019 4 4.5 4 4.5-1.794 4.5-4v-6h4v-1.921c4.085 2.487 8.878 3.921 14 3.921 2.28 0 4.538-.297 6.727-.859l2.273 2.273v6.586h2v-2h12v2h2v-6.764l1.895-3.789c.069-.138.105-.292.105-.447v-17c0-.445-.295-.809-.698-.939.455-1.98.698-4.011.698-6.061 0-14.888-12.112-27-27-27zm-22.5 60c-1.379 0-2.5-.897-2.5-2s1.121-2 2.5-2 2.5.897 2.5 2-1.121 2-2.5 2zm-2.5-33c0-13.785 11.215-25 25-25s25 11.215 25 25c0 2.033-.258 4.045-.739 6h-1.261v-3c0-.183-.062-.345-.148-.493.09-.831.148-1.67.148-2.507 0-12.682-10.317-23-23-23s-23 10.318-23 23c0 12.683 10.317 23 23 23 1.689 0 3.364-.191 5-.554v1.554c0 .169.056.325.135.47-1.682.351-3.402.53-5.135.53-13.785 0-25-11.215-25-25zm43-2h-4c-.553 0-1 .448-1 1v3h-3c-.553 0-1 .448-1 1v11h-3c-.553 0-1 .447-1 1v5.389c-1.63.398-3.307.611-5 .611-11.579 0-21-9.421-21-21 0-11.58 9.421-21 21-21s21 9.42 21 21c0 .667-.043 1.336-.106 2h-1.894v-3c0-.552-.447-1-1-1zm7 25.764-1.895 3.789c-.069.138-.105.292-.105.447v3h-12v-3c0-.266-.105-.52-.293-.707l-3.707-3.707v-7.586h2v5h2v-6-11h2v15h2v-16-3h2v3 16h2v-15h2v3 12h2v-11h2z"/><path d="m28 21c-3.859 0-7 3.14-7 7s3.141 7 7 7 7-3.14 7-7-3.141-7-7-7zm0 12c-2.757 0-5-2.243-5-5s2.243-5 5-5 5 2.243 5 5-2.243 5-5 5z"/><path d="m28 25c-1.654 0-3 1.346-3 3s1.346 3 3 3 3-1.346 3-3-1.346-3-3-3zm0 4c-.552 0-1-.449-1-1s.448-1 1-1 1 .449 1 1-.448 1-1 1z"/><path d="m58 1c-.553 0-1 .448-1 1v3.677c-.716-.427-1.575-.677-2.5-.677-2.481 0-4.5 1.794-4.5 4s2.019 4 4.5 4 4.5-1.794 4.5-4v-6h4v-2zm-3.5 10c-1.379 0-2.5-.897-2.5-2s1.121-2 2.5-2 2.5.897 2.5 2-1.121 2-2.5 2z"/></g></svg>