<svg id="Layer_3" enable-background="new 0 0 64 64" height="512" viewBox="0 0 64 64" width="512" xmlns="http://www.w3.org/2000/svg"><g><path d="m58 25h-19v-2h1c.553 0 1-.447 1-1v-1c0-11.028-8.972-20-20-20s-20 8.972-20 20v1c0 .553.447 1 1 1h1v3.026c-1.207.913-2 2.347-2 3.974v8c0 2.757 2.243 5 5 5v1c0 1.654 1.346 3 3 3h11c.552 0 1 .448 1 1s-.448 1-1 1h-16c-1.654 0-3 1.346-3 3s1.346 3 3 3h15c1.103 0 2 .897 2 2s-.897 2-2 2v-1c0-.553-.447-1-1-1h-11c-.553 0-1 .447-1 1v1h-5v2h5v1c0 .553.447 1 1 1h11c.553 0 1-.447 1-1v-1c2.206 0 4-1.794 4-4s-1.794-4-4-4h-15c-.552 0-1-.448-1-1s.448-1 1-1h16c1.654 0 3-1.346 3-3s-1.346-3-3-3h-11c-.552 0-1-.448-1-1v-1h1c1.654 0 3-1.346 3-3v-5h2.219l.812 3.242c.111.446.511.758.969.758h.013c.464-.006.863-.33.964-.783l1.297-5.84.798 1.994c.152.38.519.629.928.629h3v-2h-2.323l-1.748-4.371c-.163-.406-.562-.659-1.01-.626-.437.036-.8.352-.896.78l-1.083 4.876c-.142-.392-.515-.659-.94-.659h-3v-5c0-1.654-1.346-3-3-3h-3c-.342 0-.677.035-1 .101v-2.101h1c.553 0 1-.447 1-1v-1c0-7.72 6.28-14 14-14s14 6.28 14 14v1c0 .553.447 1 1 1h1v2h-7c-2.757 0-5 2.243-5 5v28c0 2.757 2.243 5 5 5h28c2.757 0 5-2.243 5-5v-28c0-2.757-2.243-5-5-5zm-41 36h-9v-2h9zm-8-34c.552 0 1 .448 1 1v12c0 .552-.448 1-1 1h-3c-1.654 0-3-1.346-3-3v-8c0-1.654 1.346-3 3-3zm12-22c-8.822 0-16 7.178-16 16h-2c0-9.925 8.075-18 18-18s18 8.075 18 18h-2c0-8.822-7.178-16-16-16zm40 53c0 1.654-1.346 3-3 3h-28c-1.654 0-3-1.346-3-3v-28c0-1.654 1.346-3 3-3h28c1.654 0 3 1.346 3 3z"/><path d="m44 37c-3.859 0-7 3.141-7 7s3.141 7 7 7 7-3.141 7-7-3.141-7-7-7zm0 12c-2.757 0-5-2.243-5-5s2.243-5 5-5 5 2.243 5 5-2.243 5-5 5z"/><path d="m44 41c-1.654 0-3 1.346-3 3s1.346 3 3 3 3-1.346 3-3-1.346-3-3-3zm0 4c-.552 0-1-.448-1-1s.448-1 1-1 1 .448 1 1-.448 1-1 1z"/><path d="m57 28c-1.654 0-3 1.346-3 3 0 1.215.729 2.259 1.771 2.73l-.197.738c-2.753-3.337-6.919-5.468-11.574-5.468-8.271 0-15 6.729-15 15s6.729 15 15 15 15-6.729 15-15c0-2.671-.71-5.176-1.939-7.351l.739-2.771c1.265-.353 2.2-1.503 2.2-2.878 0-1.654-1.346-3-3-3zm0 16c0 7.168-5.832 13-13 13s-13-5.832-13-13 5.832-13 13-13c4.572 0 8.592 2.378 10.91 5.956l-2.876 10.786 1.932.516 2.285-8.567c.476 1.351.749 2.797.749 4.309zm0-12c-.552 0-1-.448-1-1s.448-1 1-1 1 .448 1 1-.448 1-1 1z"/></g></svg>