<svg id="Layer_3" enable-background="new 0 0 64 64" height="512" viewBox="0 0 64 64" width="512" xmlns="http://www.w3.org/2000/svg"><g><path d="m26.5 26c-.827 0-1.5.673-1.5 1.5s.673 1.5 1.5 1.5 1.5-.673 1.5-1.5-.673-1.5-1.5-1.5z"/><path d="m62 57h-7v-3c0-.553-.447-1-1-1h-1v-3c0-2.657-1.164-5.041-3-6.689v-6.311-3c1.654 0 3-1.346 3-3v-6c0-1.654-1.346-3-3-3v-7c0-7.72-6.28-14-14-14h-8c-7.72 0-14 6.28-14 14v7c-1.654 0-3 1.346-3 3v6c0 1.654 1.346 3 3 3v9.311c-1.836 1.649-3 4.033-3 6.689v3h-1c-.553 0-1 .447-1 1v3h-7c-.553 0-1 .447-1 1v4c0 .553.447 1 1 1h60c.553 0 1-.447 1-1v-4c0-.553-.447-1-1-1zm-15 0v-2h6v2zm4-7v3h-5c-.553 0-1 .447-1 1v3h-1v-4.343c0-3.274 1.244-6.351 3.493-8.714 2.093 1.212 3.507 3.47 3.507 6.057zm-8-12h-2c-.552 0-1-.448-1-1s.448-1 1-1h2c.552 0 1 .448 1 1s-.448 1-1 1zm1-13v1.75c-5.573-1.497-9.763-6.168-10.591-11.96l-.419-2.932c-.075-.519-.527-.899-1.062-.855-.523.037-.928.473-.928.997 0 3.309-2.691 6-6 6h-4.949c.511-6.15 5.669-11 11.949-11 6.617 0 12 5.383 12 12zm-24 0v-5h5c2.785 0 5.241-1.43 6.675-3.595.462 2.035 1.297 3.924 2.428 5.595h-.103v2h1.703c.736.789 1.544 1.509 2.423 2.142-.191-.089-.402-.142-.626-.142-.827 0-1.5.673-1.5 1.5s.673 1.5 1.5 1.5 1.5-.673 1.5-1.5c0-.434-.188-.823-.484-1.097 1.637 1.109 3.487 1.931 5.484 2.399v2.198c0 1.042-.134 2.067-.396 3.061-.195-.04-.397-.061-.604-.061h-2c-.796 0-1.515.317-2.053.824.032-.271.053-.545.053-.824h-2c0 2.757-2.243 5-5 5s-5-2.243-5-5h-2c0 3.859 3.141 7 7 7 2.583 0 4.838-1.41 6.051-3.497.189 1.109.986 2.001 2.036 2.34-2.195 2.016-5.045 3.157-8.087 3.157-6.617 0-12-5.383-12-12zm12 20c2.586 0 5.053-.712 7.196-2h1.4c-1.388 3.565-4.124 6.424-7.68 7.948l-.273.117c-.211-.034-.423-.065-.643-.065s-.432.031-.643.065l-.272-.116c-3.557-1.526-6.293-4.385-7.681-7.949h1.422c2.101 1.261 4.55 2 7.174 2zm-10.71-2c1.344 3.989 4.136 7.264 7.85 9.213-.703.721-1.14 1.703-1.14 2.787 0 .732.212 1.409.556 2h-6.556v-4.343c0-3.519-1.241-6.843-3.501-9.491.484-.106.985-.166 1.501-.166zm8.71 12c0-1.103.897-2 2-2s2 .897 2 2-.897 2-2 2-2-.897-2-2zm4.86-2.787c3.713-1.949 6.506-5.223 7.85-9.213h1.29c.516 0 1.017.06 1.501.166-2.26 2.648-3.501 5.972-3.501 9.491v4.343h-6.556c.344-.591.556-1.268.556-2 0-1.084-.437-2.066-1.14-2.787zm9.14-11.213h-2.216c.321-.315.622-.652.915-1h.301c1.302 0 2.402-.839 2.816-2h2.184v3.95c-1.207-.603-2.562-.95-4-.95zm4-5h-2.184c-.109-.305-.264-.584-.459-.834.15-.48.274-.967.371-1.459.387.183.816.293 1.272.293h1zm3-11v6c0 .552-.448 1-1 1h-3c-.552 0-1-.448-1-1v-6c0-.552.448-1 1-1h3c.552 0 1 .448 1 1zm-35-10c0-6.617 5.383-12 12-12h8c6.617 0 12 5.383 12 12v7h-1c-.352 0-.686.072-1 .184v-3.184c0-7.72-6.28-14-14-14s-14 6.28-14 14v3.184c-.314-.112-.648-.184-1-.184h-1zm-3 16v-6c0-.552.448-1 1-1h3c.552 0 1 .448 1 1v6c0 .552-.448 1-1 1h-3c-.552 0-1-.448-1-1zm3 3h1c.455 0 .882-.109 1.268-.291.557 2.828 1.968 5.35 3.953 7.291h-2.221c-1.438 0-2.793.347-4 .95zm-3 16c0-2.587 1.415-4.845 3.507-6.057 2.249 2.363 3.493 5.44 3.493 8.714v4.343h-1v-3c0-.553-.447-1-1-1h-5zm-2 5h6v2h-6zm50 6h-58v-2h58z"/><path d="m60 41c-.553 0-1 .447-1 1v3.184c-.314-.112-.648-.184-1-.184-1.654 0-3 1.346-3 3s1.346 3 3 3 3-1.346 3-3v-5h2v-2zm-2 8c-.552 0-1-.448-1-1s.448-1 1-1 1 .448 1 1-.448 1-1 1z"/><path d="m4 51c1.654 0 3-1.346 3-3v-5h2v-2h-3c-.553 0-1 .447-1 1v3.184c-.314-.112-.648-.184-1-.184-1.654 0-3 1.346-3 3s1.346 3 3 3zm0-4c.552 0 1 .448 1 1s-.448 1-1 1-1-.448-1-1 .448-1 1-1z"/><path d="m32 34h3v-2h-2v-7h-2v8c0 .553.447 1 1 1z"/><path d="m23 22h7v2h-7z"/></g></svg>