<svg id="Layer_3" enable-background="new 0 0 64 64" height="512" viewBox="0 0 64 64" width="512" xmlns="http://www.w3.org/2000/svg"><g><path d="m62 57h-1v-17c0-.552-.448-1-1-1h-6c-.552 0-1 .448-1 1v17h-2v-47c0-.552-.448-1-1-1h-6c-.552 0-1 .448-1 1v47h-2v-7c0-.552-.448-1-1-1h-6c-.552 0-1 .448-1 1v7h-2v-37c0-.552-.448-1-1-1h-6c-.552 0-1 .448-1 1v37h-2v-17c0-.552-.448-1-1-1h-6c-.552 0-1 .448-1 1v17h-2v-27c0-.552-.448-1-1-1h-6c-.552 0-1 .448-1 1v27h-1c-.552 0-1 .448-1 1v4c0 .552.448 1 1 1h60c.552 0 1-.448 1-1v-4c0-.552-.448-1-1-1zm-7-16h4v16h-4zm-10-30h4v46h-4zm-10 40h4v6h-4zm-10-30h4v36h-4zm-10 20h4v16h-4zm-10-10h4v26h-4zm56 30h-58v-2h58z"/><path d="m44 7h6c.552 0 1-.448 1-1v-5h-2v4h-4v-4h-2v5c0 .552.448 1 1 1z"/><path d="m24 17h6c.552 0 1-.448 1-1v-3h-2v2h-4v-2h-2v3c0 .552.448 1 1 1z"/><path d="m14 37h6c.552 0 1-.448 1-1v-3h-2v2h-4v-2h-2v3c0 .552.448 1 1 1z"/><path d="m4 27h6c.552 0 1-.448 1-1v-3h-2v2h-4v-2h-2v3c0 .552.448 1 1 1z"/><path d="m3 19h2v2h-2z"/><path d="m9 19h2v2h-2z"/><path d="m13 29h2v2h-2z"/><path d="m13 25h2v2h-2z"/><path d="m19 29h2v2h-2z"/><path d="m19 25h2v2h-2z"/><path d="m23 9h2v2h-2z"/><path d="m23 5h2v2h-2z"/><path d="m29 9h2v2h-2z"/><path d="m29 5h2v2h-2z"/><path d="m54 37h6c.552 0 1-.448 1-1v-3h-2v2h-4v-2h-2v3c0 .552.448 1 1 1z"/><path d="m53 29h2v2h-2z"/><path d="m53 25h2v2h-2z"/><path d="m59 29h2v2h-2z"/><path d="m59 25h2v2h-2z"/><path d="m34 47h6c.552 0 1-.448 1-1v-3h-2v2h-4v-2h-2v3c0 .552.448 1 1 1z"/><path d="m33 39h2v2h-2z"/><path d="m33 35h2v2h-2z"/><path d="m39 39h2v2h-2z"/><path d="m39 35h2v2h-2z"/><path d="m33 31h2v2h-2z"/><path d="m39 31h2v2h-2z"/></g></svg>