<svg id="Layer_3" enable-background="new 0 0 64 64" height="512" viewBox="0 0 64 64" width="512" xmlns="http://www.w3.org/2000/svg"><g><path d="m28.552 46.179c.276-.501.448-1.067.448-1.679 0-1.93-1.57-3.5-3.5-3.5h-1.601c-.25-1.226-.96-2.278-1.93-3h.031v-33c0-2.206-1.794-4-4-4s-4 1.794-4 4v32h-3c-3.525 0-6.574 2.042-8.05 5h-1.95v2h1.232c-.147.644-.232 1.312-.232 2h2c0-3.859 3.14-7 7-7h8c1.654 0 3 1.346 3 3v4.5c0 .827-.673 1.5-1.5 1.5s-1.5-.673-1.5-1.5v-3.5c0-.553-.448-1-1-1h-6c-.552 0-1 .447-1 1 0 2.757-2.243 5-5 5v2c3.521 0 6.442-2.612 6.929-6h.111c-.024.165-.04.331-.04.5 0 .98.407 1.864 1.058 2.5-.651.636-1.058 1.52-1.058 2.5s.407 1.864 1.058 2.5c-.651.636-1.058 1.52-1.058 2.5s.407 1.864 1.058 2.5c-.651.636-1.058 1.52-1.058 2.5 0 .539.133 1.044.351 1.5h-2.351c-3.86 0-7-3.141-7-7h-2c0 .688.085 1.356.232 2h-1.232v2h1.95c1.476 2.958 4.526 5 8.05 5h5v-.051c.165.024.329.051.5.051h7c1.93 0 3.5-1.57 3.5-3.5 0-.612-.172-1.178-.448-1.679 1.414-.45 2.448-1.76 2.448-3.321 0-.612-.172-1.178-.448-1.679 1.414-.45 2.448-1.76 2.448-3.321s-1.034-2.871-2.448-3.321zm-12.552-9.179v-32c0-1.103.897-2 2-2s2 .897 2 2v32.101c-.323-.066-.658-.101-1-.101zm11 7.5c0 .827-.673 1.5-1.5 1.5h-1.5v-3h1.5c.827 0 1.5.673 1.5 1.5zm-12 0c0-.173.033-.341.09-.5h1.91v2h-.5c-.827 0-1.5-.673-1.5-1.5zm8.5 16.5h-7c-.827 0-1.5-.673-1.5-1.5s.673-1.5 1.5-1.5h7c.827 0 1.5.673 1.5 1.5s-.673 1.5-1.5 1.5zm2-5h-2-7c-.827 0-1.5-.673-1.5-1.5s.673-1.5 1.5-1.5h9c.827 0 1.5.673 1.5 1.5s-.673 1.5-1.5 1.5zm2-5h-2-9c-.827 0-1.5-.673-1.5-1.5s.673-1.5 1.5-1.5h.851c.564 1.178 1.758 2 3.149 2s2.585-.822 3.149-2h1.851 2c.827 0 1.5.673 1.5 1.5s-.673 1.5-1.5 1.5z"/><path d="m63 42h-1.95c-1.476-2.958-4.526-5-8.05-5h-3v-32c0-2.206-1.794-4-4-4s-4 1.794-4 4v33h.031c-.97.722-1.68 1.774-1.93 3h-1.601c-1.93 0-3.5 1.57-3.5 3.5 0 .612.172 1.178.448 1.679-1.414.45-2.448 1.76-2.448 3.321s1.034 2.871 2.448 3.321c-.276.501-.448 1.067-.448 1.679 0 1.561 1.034 2.871 2.448 3.321-.276.501-.448 1.067-.448 1.679 0 1.93 1.57 3.5 3.5 3.5h7c.171 0 .335-.027.5-.051v.051h5c3.525 0 6.574-2.042 8.05-5h1.95v-2h-1.232c.147-.644.232-1.312.232-2h-2c0 3.859-3.14 7-7 7h-2.351c.218-.456.351-.961.351-1.5 0-.98-.407-1.864-1.058-2.5.651-.636 1.058-1.52 1.058-2.5s-.407-1.864-1.058-2.5c.651-.636 1.058-1.52 1.058-2.5s-.407-1.864-1.058-2.5c.651-.636 1.058-1.52 1.058-2.5 0-.169-.016-.335-.04-.5h.111c.487 3.388 3.408 6 6.929 6v-2c-2.757 0-5-2.243-5-5 0-.553-.448-1-1-1h-6c-.552 0-1 .447-1 1v3.5c0 .827-.673 1.5-1.5 1.5s-1.5-.673-1.5-1.5v-4.5c0-1.654 1.346-3 3-3h8c3.86 0 7 3.141 7 7h2c0-.688-.085-1.356-.232-2h1.232zm-24.5 1h1.5v3h-1.5c-.827 0-1.5-.673-1.5-1.5s.673-1.5 1.5-1.5zm10.5 16.5c0 .827-.673 1.5-1.5 1.5h-7c-.827 0-1.5-.673-1.5-1.5s.673-1.5 1.5-1.5h7c.827 0 1.5.673 1.5 1.5zm0-5c0 .827-.673 1.5-1.5 1.5h-7-2c-.827 0-1.5-.673-1.5-1.5s.673-1.5 1.5-1.5h9c.827 0 1.5.673 1.5 1.5zm-.09-10.5c.056.159.09.327.09.5 0 .827-.673 1.5-1.5 1.5h-.5v-2zm-5.41 6c1.391 0 2.585-.822 3.149-2h.851c.827 0 1.5.673 1.5 1.5s-.673 1.5-1.5 1.5h-9-2c-.827 0-1.5-.673-1.5-1.5s.673-1.5 1.5-1.5h2 1.851c.564 1.178 1.758 2 3.149 2zm.5-12.899v-32.101c0-1.103.897-2 2-2s2 .897 2 2v32h-3c-.342 0-.677.035-1 .101z"/></g></svg>