<svg id="Layer_3" enable-background="new 0 0 64 64" height="512" viewBox="0 0 64 64" width="512" xmlns="http://www.w3.org/2000/svg"><g><path d="m27 5c-.829 0-1.6.254-2.239.687-.547-1.559-2.017-2.687-3.761-2.687-.829 0-1.6.254-2.239.687-.547-1.559-2.017-2.687-3.761-2.687s-3.214 1.128-3.761 2.687c-.639-.433-1.41-.687-2.239-.687-2.206 0-4 1.794-4 4v2c-2.206 0-4 1.794-4 4v14c0 3.719 2.555 6.845 6 7.737v2.448c-1.161.413-2 1.513-2 2.815 0 .771.301 1.468.78 2-.479.532-.78 1.229-.78 2 0 1.302.839 2.402 2 2.816v16.184h2v-16h14v16h2v-16.184c1.161-.414 2-1.514 2-2.816 0-.771-.301-1.468-.78-2 .48-.532.78-1.229.78-2 0-1.302-.839-2.402-2-2.816v-3.267c2.387-1.386 4-3.964 4-6.918v-6.556c1.19-.694 2-1.97 2-3.444v-7.999c0-2.206-1.794-4-4-4zm-6 0c1.103 0 2 .897 2 2v2 10h-4v-12c0-1.103.897-2 2-2zm-8 0c0-1.103.897-2 2-2s2 .897 2 2v2 12h-4v-2.556c1.19-.694 2-1.97 2-3.444s-.81-2.75-2-3.444v-2.556zm-2 14h-2v-2h2zm-4-12c0-1.103.897-2 2-2s2 .897 2 2v2h-4zm1 32h16c.552 0 1 .448 1 1s-.448 1-1 1h-16c-.552 0-1-.448-1-1s.448-1 1-1zm16 6h-16c-.552 0-1-.448-1-1s.448-1 1-1h16c.552 0 1 .448 1 1s-.448 1-1 1zm3-18c0 3.309-2.691 6-6 6v2c.692 0 1.359-.097 2-.263v2.263h-14v-2h2v-2h-2c-3.309 0-6-2.691-6-6v-14c0-1.103.897-2 2-2h6c1.103 0 2 .897 2 2s-.897 2-2 2h-3c-.553 0-1 .447-1 1v7h-2v2h4c2.206 0 4 1.794 4 4h2c0-1.103.897-2 2-2h4v-2h-4c-1.066 0-2.029.425-2.747 1.107-1.023-1.851-2.993-3.107-5.253-3.107v-2h3 6 6 3zm2-10c0 1.103-.897 2-2 2h-2v-10c0-1.103.897-2 2-2s2 .897 2 2z"/><path d="m59 9v-2c0-2.206-1.794-4-4-4-.829 0-1.6.254-2.239.687-.547-1.559-2.017-2.687-3.761-2.687s-3.214 1.128-3.761 2.687c-.639-.433-1.41-.687-2.239-.687-1.744 0-3.214 1.128-3.761 2.687-.639-.433-1.41-.687-2.239-.687-2.206 0-4 1.794-4 4v8c0 1.474.81 2.75 2 3.444v6.556c0 2.953 1.613 5.532 4 6.918v3.267c-1.161.414-2 1.514-2 2.816 0 .771.301 1.468.78 2-.48.532-.78 1.229-.78 2s.301 1.468.78 2c-.48.532-.78 1.229-.78 2 0 1.302.839 2.402 2 2.816v12.183h2v-12h14v12h2v-12.184c1.161-.414 2-1.514 2-2.816 0-.771-.301-1.468-.78-2 .48-.532.78-1.229.78-2s-.301-1.468-.78-2c.48-.532.78-1.229.78-2 0-1.302-.839-2.402-2-2.816v-2.448c3.445-.892 6-4.017 6-7.737v-13.999c0-2.206-1.794-4-4-4zm-4-4c1.103 0 2 .897 2 2v2h-4v-2c0-1.103.897-2 2-2zm-8 0c0-1.103.897-2 2-2s2 .897 2 2v2 2.556c-1.19.694-2 1.97-2 3.444s.81 2.75 2 3.444v2.556h-4v-12zm8 14h-2v-2h2zm-14-12c0-1.103.897-2 2-2s2 .897 2 2v12h-4v-10zm-6 2c0-1.103.897-2 2-2s2 .897 2 2v10h-2c-1.103 0-2-.897-2-2zm5 30h16c.552 0 1 .448 1 1s-.448 1-1 1h-16c-.552 0-1-.448-1-1s.448-1 1-1zm17 5c0 .552-.448 1-1 1h-16c-.552 0-1-.448-1-1s.448-1 1-1h16c.552 0 1 .448 1 1zm-1 5h-16c-.552 0-1-.448-1-1s.448-1 1-1h16c.552 0 1 .448 1 1s-.448 1-1 1zm5-22c0 3.309-2.691 6-6 6h-2v2h2v2h-14v-2.263c.641.166 1.308.263 2 .263v-2c-3.309 0-6-2.691-6-6v-6h3 6 6 3v2c-2.26 0-4.23 1.256-5.253 3.107-.718-.682-1.681-1.107-2.747-1.107h-4v2h4c1.103 0 2 .897 2 2h2c0-2.206 1.794-4 4-4h4v-2h-2v-7c0-.553-.447-1-1-1h-3c-1.103 0-2-.897-2-2s.897-2 2-2h6c1.103 0 2 .897 2 2z"/></g></svg>