<svg id="Layer_3" enable-background="new 0 0 64 64" height="512" viewBox="0 0 64 64" width="512" xmlns="http://www.w3.org/2000/svg"><g><path d="m57.806 35.407-25-34c-.377-.513-1.234-.513-1.611 0l-25 34c-.224.304-.257.708-.087 1.044.17.337.515.549.892.549h3v25c0 .553.447 1 1 1h42c.553 0 1-.447 1-1v-25h3c.377 0 .722-.212.893-.549.169-.336.136-.74-.087-1.044zm-5.806 25.593h-40v-24h16v2h-1c-3.859 0-7 3.141-7 7s3.141 7 7 7 7-3.141 7-7v-9h18zm-20-33v18c0 2.757-2.243 5-5 5s-5-2.243-5-5 2.243-5 5-5h2c.553 0 1-.447 1-1v-15h12v2h-9c-.553 0-1 .448-1 1zm2 7v-6h9c.553 0 1-.448 1-1v-4c0-.552-.447-1-1-1h-14c-.553 0-1 .448-1 1v11h-19.023l23.023-31.312 23.023 31.312z"/><path d="m37 53h12c.553 0 1-.447 1-1v-12c0-.553-.447-1-1-1h-12c-.553 0-1 .447-1 1v12c0 .553.447 1 1 1zm1-6h4v4h-4zm6 4v-4h4v4zm4-6h-4v-4h4zm-6-4v4h-4v-4z"/></g></svg>