<svg id="Layer_3" enable-background="new 0 0 64 64" height="512" viewBox="0 0 64 64" width="512" xmlns="http://www.w3.org/2000/svg"><g><path d="m58 39h-1v-3c0-.553-.448-1-1-1h-17v-9h7c1.654 0 3-1.346 3-3v-14c0-1.654-1.346-3-3-3s-3 1.346-3 3v11h-6.54c.519-.578.926-1.254 1.19-2h2.35c1.103 0 2-.897 2-2v-4c0-.737-.405-1.375-1-1.722v-2.278c0-3.859-3.14-7-7-7h-4c-3.86 0-7 3.141-7 7v2.278c-.595.347-1 .985-1 1.722v4c0 1.103.897 2 2 2h2.35c.265.746.672 1.422 1.19 2h-17.54c-1.654 0-3 1.346-3 3s1.346 3 3 3h15v9h-17c-.552 0-1 .447-1 1v3h-1c-2.757 0-5 2.243-5 5v14c0 2.757 2.243 5 5 5h52c2.757 0 5-2.243 5-5v-14c0-2.757-2.243-5-5-5zm-12-31c.551 0 1 .448 1 1v1h-2v-1c0-.552.449-1 1-1zm-18 6h1c1.634 0 3.087-.788 4-2.003.721.96 1.782 1.646 3 1.895v2.108c0 2.206-1.794 4-4 4s-4-1.794-4-4zm8-2.171c-1.164-.413-2-1.525-2-2.829 0-.553-.448-1-1-1s-1 .447-1 1c0 1.654-1.346 3-3 3h-1v-4c0-.552.449-1 1-1h6c.551 0 1 .448 1 1zm-6 9.821c.627.223 1.298.35 2 .35s1.373-.128 2-.35v.35c0 1.103-.897 2-2 2s-2-.897-2-2zm10-5.65h-2v-3-1h2zm-10-13h4c2.757 0 5 2.243 5 5v2h-1v-2c0-1.654-1.346-3-3-3h-6c-1.654 0-3 1.346-3 3v2h-1v-2c0-2.757 2.243-5 5-5zm-6 13v-4h2v1 3zm-15 7c0-.552.449-1 1-1h1v2h-1c-.551 0-1-.448-1-1zm17 1h-13v-2h15c0 2.206 1.794 4 4 4s4-1.794 4-4h8c.552 0 1-.447 1-1v-9h2v11c0 .552-.449 1-1 1h-8c-.552 0-1 .447-1 1v10h-10v-10c0-.553-.448-1-1-1zm-17 13h46v2h-46zm52 21c0 1.654-1.346 3-3 3h-52c-1.654 0-3-1.346-3-3v-14c0-1.654 1.346-3 3-3h52c1.654 0 3 1.346 3 3z"/><path d="m5 43h2v2h-2z"/><path d="m57 43h2v2h-2z"/><path d="m5 57h2v2h-2z"/><path d="m57 57h2v2h-2z"/><path d="m51.412 32h-10.412v2h11c.363 0 .698-.197.874-.515l5-9-1.748-.971z"/><path d="m55.293 12.707c.195.195.451.293.707.293s.512-.098.707-.293l3-3c.391-.391.391-1.023 0-1.414l-1.293-1.293 1.086-1.086 1.793 1.793 1.414-1.414-5-5-1.414 1.414 1.793 1.793-1.086 1.086-1.293-1.293c-.391-.391-1.023-.391-1.414 0l-3 3c-.391.391-.391 1.023 0 1.414zm-.293-6.293 2.586 2.586-1.586 1.586-2.586-2.586z"/><path d="m4.5 5.914 1.086 1.086-1.293 1.293c-.391.391-.391 1.023 0 1.414l3 3c.195.195.451.293.707.293s.512-.098.707-.293l4-4c.391-.391.391-1.023 0-1.414l-3-3c-.391-.391-1.023-.391-1.414 0l-1.293 1.293-1.086-1.086 1.793-1.793-1.414-1.414-5 5 1.414 1.414zm4.5.5 1.586 1.586-2.586 2.586-1.586-1.586z"/><path d="m44.895 48.553c-.164-.326-.491-.538-.856-.552-.38-.039-.708.171-.896.484l-1.934 3.224-2.272-6.061c-.153-.406-.562-.676-.983-.647-.433.021-.804.317-.918.736l-1.954 7.166-2.106-9.128c-.106-.454-.511-.775-.976-.775-.002 0-.005 0-.008 0-.469.004-.872.332-.97.79l-2.058 9.606-1.989-8.621c-.105-.454-.51-.775-.975-.775-.005 0-.01 0-.015 0-.471.007-.874.342-.966.804l-1.262 6.308-.809-2.428c-.128-.384-.475-.652-.878-.681-.402-.029-.784.188-.965.55l-1.723 3.447h-8.382v2h9c.379 0 .725-.214.895-.553l.92-1.841 1.236 3.71c.144.431.566.704 1.011.682.453-.028.83-.357.918-.802l1.089-5.446 1.956 8.475c.105.454.51.775.975.775h.008c.469-.004.872-.332.97-.79l2.058-9.606 1.989 8.621c.103.447.497.767.955.775.466.014.863-.294.984-.737l2.186-8.014 1.913 5.103c.135.359.463.609.846.645.39.034.751-.153.948-.481l2.063-3.438 1.185 2.371c.17.337.516.551.895.551h7v-2h-6.382z"/><path d="m9 32h14v2h-14z"/></g></svg>