<svg id="Layer_3" enable-background="new 0 0 64 64" height="512" viewBox="0 0 64 64" width="512" xmlns="http://www.w3.org/2000/svg"><g><path d="m13 35h2v2h-2z"/><path d="m35 35h2v2h-2z"/><path d="m13 57h2v2h-2z"/><path d="m35 57h2v2h-2z"/><path d="m13 47c0 6.617 5.383 12 12 12s12-5.383 12-12-5.383-12-12-12-12 5.383-12 12zm22 0c0 5.514-4.486 10-10 10s-10-4.486-10-10 4.486-10 10-10 10 4.486 10 10z"/><path d="m16 47c0 4.962 4.038 9 9 9s9-4.038 9-9-4.038-9-9-9-9 4.038-9 9zm16 0c0 3.86-3.14 7-7 7s-7-3.14-7-7 3.14-7 7-7 7 3.14 7 7z"/><path d="m22 47c0 1.654 1.346 3 3 3s3-1.346 3-3-1.346-3-3-3-3 1.346-3 3zm4 0c0 .551-.449 1-1 1s-1-.449-1-1 .449-1 1-1 1 .449 1 1z"/><path d="m50 33c2.757 0 5-2.243 5-5v-22c0-2.757-2.243-5-5-5h-22c-2.757 0-5 2.243-5 5v22c0 1.13.391 2.162 1.026 3h-10.026c-2.757 0-5 2.243-5 5v22c0 2.757 2.243 5 5 5h22c2.757 0 5-2.243 5-5v-22c0-1.13-.391-2.162-1.026-3zm-25-5v-22c0-1.654 1.346-3 3-3h22c1.654 0 3 1.346 3 3v22c0 1.654-1.346 3-3 3h-14-8c-1.654 0-3-1.346-3-3zm14 8v22c0 1.654-1.346 3-3 3h-22c-1.654 0-3-1.346-3-3v-22c0-1.654 1.346-3 3-3h14 8c1.654 0 3 1.346 3 3z"/><path d="m27 5h2v2h-2z"/><path d="m49 5h2v2h-2z"/><path d="m27 27h2v2h-2z"/><path d="m49 27h2v2h-2z"/><path d="m51 17c0-6.617-5.383-12-12-12s-12 5.383-12 12 5.383 12 12 12 12-5.383 12-12zm-22 0c0-5.514 4.486-10 10-10s10 4.486 10 10-4.486 10-10 10-10-4.486-10-10z"/><path d="m48 17c0-4.962-4.038-9-9-9s-9 4.038-9 9 4.038 9 9 9 9-4.038 9-9zm-16 0c0-3.86 3.14-7 7-7s7 3.14 7 7-3.14 7-7 7-7-3.14-7-7z"/><path d="m42 17c0-1.654-1.346-3-3-3s-3 1.346-3 3 1.346 3 3 3 3-1.346 3-3zm-4 0c0-.551.449-1 1-1s1 .449 1 1-.449 1-1 1-1-.449-1-1z"/><path d="m51 35c-.552 0-1 .448-1 1v3.677c-.716-.427-1.575-.677-2.5-.677-2.481 0-4.5 1.794-4.5 4s2.019 4 4.5 4 4.5-1.794 4.5-4v-6h4v-2zm-3.5 10c-1.378 0-2.5-.897-2.5-2s1.122-2 2.5-2 2.5.897 2.5 2-1.122 2-2.5 2z"/><path d="m12.5 29c2.481 0 4.5-1.794 4.5-4v-6h4v-2h-5c-.552 0-1 .448-1 1v3.677c-.716-.427-1.575-.677-2.5-.677-2.481 0-4.5 1.794-4.5 4s2.019 4 4.5 4zm0-6c1.378 0 2.5.897 2.5 2s-1.122 2-2.5 2-2.5-.897-2.5-2 1.122-2 2.5-2z"/></g></svg>