<svg id="Layer_3" enable-background="new 0 0 64 64" height="512" viewBox="0 0 64 64" width="512" xmlns="http://www.w3.org/2000/svg"><g><path d="m37.5 26c-.827 0-1.5.673-1.5 1.5s.673 1.5 1.5 1.5 1.5-.673 1.5-1.5-.673-1.5-1.5-1.5z"/><path d="m26.5 26c-.827 0-1.5.673-1.5 1.5s.673 1.5 1.5 1.5 1.5-.673 1.5-1.5-.673-1.5-1.5-1.5z"/><path d="m62 57h-7v-3c0-.553-.447-1-1-1h-1v-3c0-4.963-4.037-9-9-9h-2.223c.321-.315.624-.651.917-1h.306c1.302 0 2.402-.839 2.816-2h3.184c.553 0 1-.447 1-1v-3c1.654 0 3-1.346 3-3v-6c0-1.654-1.346-3-3-3v-7c0-7.72-6.28-14-14-14h-8c-7.72 0-14 6.28-14 14v7c-1.654 0-3 1.346-3 3v6c0 1.654 1.346 3 3 3h3c.455 0 .882-.109 1.268-.291.557 2.828 1.968 5.35 3.953 7.291h-2.221c-4.963 0-9 4.037-9 9v3h-1c-.553 0-1 .447-1 1v3h-7c-.553 0-1 .447-1 1v4c0 .553.447 1 1 1h60c.553 0 1-.447 1-1v-4c0-.553-.447-1-1-1zm-15 0v-2h6v2zm4-7v3h-5c-.553 0-1 .447-1 1v3h-15.586l14-14h.586c3.859 0 7 3.141 7 7zm-8-12h-2c-.552 0-1-.448-1-1s.448-1 1-1h2c.552 0 1 .448 1 1s-.448 1-1 1zm-8-20h-6v-3c0-.552.448-1 1-1h4c.552 0 1 .448 1 1zm-1-6h-4c-1.654 0-3 1.346-3 3v3h-7v-6c0-2.757 2.243-5 5-5h14c2.757 0 5 2.243 5 5v6h-7v-3c0-1.654-1.346-3-3-3zm14 24h-2.184c-.109-.305-.264-.584-.46-.835.15-.48.276-.966.373-1.458.387.183.815.293 1.271.293h1zm3-11v6c0 .552-.448 1-1 1h-3c-.552 0-1-.448-1-1v-6c0-.552.448-1 1-1h3c.552 0 1 .448 1 1zm-35-10c0-6.617 5.383-12 12-12h8c6.617 0 12 5.383 12 12v7h-1c-.352 0-.686.072-1 .184v-10.184c0-3.859-3.141-7-7-7h-14c-3.859 0-7 3.141-7 7v10.184c-.314-.112-.648-.184-1-.184h-1zm1 17h-3c-.552 0-1-.448-1-1v-6c0-.552.448-1 1-1h3c.552 0 1 .448 1 1v6c0 .552-.448 1-1 1zm3-1v-6-5h24v5 6c0 1.042-.134 2.068-.395 3.061-.196-.04-.398-.061-.605-.061h-2c-.796 0-1.515.317-2.053.824.032-.271.053-.545.053-.824h-2c0 2.757-2.243 5-5 5s-5-2.243-5-5h-2c0 3.859 3.141 7 7 7 2.583 0 4.838-1.41 6.051-3.497.189 1.109.986 2.002 2.037 2.34-2.194 2.017-5.039 3.157-8.088 3.157-6.617 0-12-5.383-12-12zm12 14c2.591 0 5.054-.713 7.195-2h1.391l-8.586 8.586-8.586-8.586h1.412c2.101 1.261 4.55 2 7.174 2zm-19 5c0-3.859 3.141-7 7-7h.586l10 10-4 4h-7.586v-3c0-.553-.447-1-1-1h-5zm-2 5h6v2h-6zm50 6h-58v-2h58z"/><path d="m60 41c-.553 0-1 .447-1 1v3.184c-.314-.112-.648-.184-1-.184-1.654 0-3 1.346-3 3s1.346 3 3 3 3-1.346 3-3v-5h2v-2zm-2 8c-.552 0-1-.448-1-1s.448-1 1-1 1 .448 1 1-.448 1-1 1z"/><path d="m4 51c1.654 0 3-1.346 3-3v-5h2v-2h-3c-.553 0-1 .447-1 1v3.184c-.314-.112-.648-.184-1-.184-1.654 0-3 1.346-3 3s1.346 3 3 3zm0-4c.552 0 1 .448 1 1s-.448 1-1 1-1-.448-1-1 .448-1 1-1z"/><path d="m32 34h3v-2h-2v-7h-2v8c0 .553.447 1 1 1z"/><path d="m23 22h7v2h-7z"/><path d="m34 22h7v2h-7z"/></g></svg>