<svg id="Layer_3" enable-background="new 0 0 64 64" height="512" viewBox="0 0 64 64" width="512" xmlns="http://www.w3.org/2000/svg"><g><path d="m62 14h-60c-.552 0-1 .447-1 1v34c0 .553.448 1 1 1h60c.552 0 1-.447 1-1v-34c0-.553-.448-1-1-1zm-59 2h58v12h-47c-.552 0-1 .447-1 1v19h-10zm24 28v-10h2v10zm3 2c.552 0 1-.447 1-1v-12c0-.553-.448-1-1-1h-4c-.552 0-1 .447-1 1v12c0 .553.448 1 1 1h1v2h-6v-2h1c.552 0 1-.447 1-1v-12c0-.553-.448-1-1-1h-4c-.552 0-1 .447-1 1v12c0 .553.448 1 1 1h1v2h-4v-18h18v18h-4v-2zm-11-2v-10h2v10zm38 4v-2h1c.552 0 1-.447 1-1v-12c0-.553-.448-1-1-1h-4c-.552 0-1 .447-1 1v12c0 .553.448 1 1 1h1v2h-6v-2h1c.552 0 1-.447 1-1v-12c0-.553-.448-1-1-1h-4c-.552 0-1 .447-1 1v12c0 .553.448 1 1 1h1v2h-6v-2h1c.552 0 1-.447 1-1v-12c0-.553-.448-1-1-1h-4c-.552 0-1 .447-1 1v12c0 .553.448 1 1 1h1v2h-4v-18h26v18zm-2-4v-10h2v10zm-8 0v-10h2v10zm-8 0v-10h2v10z"/><path d="m5 44h2v2h-2z"/><path d="m9 44h2v2h-2z"/><path d="m5 40h2v2h-2z"/><path d="m9 40h2v2h-2z"/><path d="m5 36h2v2h-2z"/><path d="m9 36h2v2h-2z"/><path d="m5 32h2v2h-2z"/><path d="m9 32h2v2h-2z"/><path d="m5 28h2v2h-2z"/><path d="m9 28h2v2h-2z"/><path d="m34 26h24c.552 0 1-.447 1-1v-6c0-.553-.448-1-1-1h-24c-.552 0-1 .447-1 1v6c0 .553.448 1 1 1zm1-6h22v4h-22z"/><path d="m6 26h24c.552 0 1-.447 1-1v-6c0-.553-.448-1-1-1h-24c-.552 0-1 .447-1 1v6c0 .553.448 1 1 1zm1-6h22v4h-22z"/></g></svg>