<svg id="Layer_3" enable-background="new 0 0 64 64" height="512" viewBox="0 0 64 64" width="512" xmlns="http://www.w3.org/2000/svg"><g><path d="m62 1h-34c-.276 0-.526.112-.707.293l-12 12c-.181.181-.293.431-.293.707v17h-9c-2.757 0-5 2.243-5 5v18c0 2.757 2.243 5 5 5h9v3c0 .552.448 1 1 1h46c.552 0 1-.448 1-1v-60c0-.552-.448-1-1-1zm-35 3.414v8.586h-8.586zm-24 49.586v-18c0-1.654 1.346-3 3-3h18c1.654 0 3 1.346 3 3v18c0 1.654-1.346 3-3 3h-18c-1.654 0-3-1.346-3-3zm58 7h-44v-2h7c2.757 0 5-2.243 5-5v-18c0-2.757-2.243-5-5-5h-7v-16h11c.552 0 1-.448 1-1v-11h32z"/><path d="m52 19c3.86 0 7-3.14 7-7s-3.14-7-7-7-7 3.14-7 7 3.14 7 7 7zm0-12c2.757 0 5 2.243 5 5s-2.243 5-5 5-5-2.243-5-5 2.243-5 5-5z"/><path d="m49.507 15.87c.153.087.323.13.493.13.178 0 .356-.047.515-.143l5-3c.301-.18.485-.506.485-.857s-.184-.677-.485-.857l-5-3c-.309-.186-.694-.191-1.007-.013-.314.177-.508.51-.508.87v6c0 .36.194.693.507.87zm1.493-5.104 2.056 1.234-2.056 1.234z"/><path d="m52 35c3.86 0 7-3.14 7-7s-3.14-7-7-7-7 3.14-7 7 3.14 7 7 7zm0-12c2.757 0 5 2.243 5 5s-2.243 5-5 5-5-2.243-5-5 2.243-5 5-5z"/><path d="m49.507 31.87c.153.087.323.13.493.13.178 0 .356-.047.515-.143l5-3c.301-.18.485-.506.485-.857s-.184-.677-.485-.857l-5-3c-.309-.186-.694-.191-1.007-.013-.314.177-.508.51-.508.87v6c0 .36.194.693.507.87zm1.493-5.104 2.056 1.234-2.056 1.234z"/><path d="m52 51c3.86 0 7-3.14 7-7s-3.14-7-7-7-7 3.14-7 7 3.14 7 7 7zm0-12c2.757 0 5 2.243 5 5s-2.243 5-5 5-5-2.243-5-5 2.243-5 5-5z"/><path d="m49.507 47.87c.153.087.323.13.493.13.178 0 .356-.047.515-.143l5-3c.301-.18.485-.506.485-.857s-.184-.677-.485-.857l-5-3c-.309-.187-.694-.19-1.007-.013-.314.177-.508.51-.508.87v6c0 .36.194.693.507.87zm1.493-5.104 2.056 1.234-2.056 1.234z"/><path d="m31 17h12v2h-12z"/><path d="m31 13h12v2h-12z"/><path d="m31 33h12v2h-12z"/><path d="m31 29h12v2h-12z"/><path d="m31 49h12v2h-12z"/><path d="m31 45h12v2h-12z"/><path d="m25 35h-9c-.552 0-1 .448-1 1v8.54c-1.063-.954-2.462-1.54-4-1.54-3.309 0-6 2.691-6 6s2.691 6 6 6 6-2.691 6-6v-12h8zm-14 18c-2.206 0-4-1.794-4-4s1.794-4 4-4 4 1.794 4 4-1.794 4-4 4z"/></g></svg>