<svg id="Layer_3" enable-background="new 0 0 64 64" height="512" viewBox="0 0 64 64" width="512" xmlns="http://www.w3.org/2000/svg"><g><path d="m29 34v-4c0-.552-.448-1-1-1h-14c-.552 0-1 .448-1 1v15h-1c-3.86 0-7 3.14-7 7s3.14 7 7 7 7-3.14 7-7v-17h9c.552 0 1-.448 1-1zm-2-1h-9c-.552 0-1 .448-1 1v18c0 2.757-2.243 5-5 5s-5-2.243-5-5 2.243-5 5-5h2c.552 0 1-.448 1-1v-15h12z"/><path d="m59 10v-4c0-.552-.448-1-1-1h-14c-.552 0-1 .448-1 1v15h-1c-3.86 0-7 3.14-7 7s3.14 7 7 7 7-3.14 7-7v-17h9c.552 0 1-.448 1-1zm-2-1h-9c-.552 0-1 .448-1 1v18c0 2.757-2.243 5-5 5s-5-2.243-5-5 2.243-5 5-5h2c.552 0 1-.448 1-1v-15h12z"/><path d="m62 1h-30c-.552 0-1 .448-1 1v23h-29c-.552 0-1 .448-1 1v36c0 .552.448 1 1 1h22c.276 0 .526-.112.707-.293l7.999-7.999c.182-.182.294-.432.294-.708v-15h21c.276 0 .526-.112.707-.293l7.999-7.999c.182-.182.294-.432.294-.708v-28c0-.552-.448-1-1-1zm-39 53v7h-20v-34h28v26h-7c-.552 0-1 .448-1 1zm6.586 1-4.586 4.586v-4.586zm23.414-25v7h-20v-11-23h28v26h-7c-.552 0-1 .448-1 1zm6.586 1-4.586 4.586v-4.586z"/><path d="m55.707 49.707 4-4c.391-.391.391-1.023 0-1.414l-4-4-1.414 1.414 2.293 2.293h-2.201c-3.022 0-5.744 1.504-7.385 3.928-1.642-2.424-4.363-3.928-7.385-3.928h-4.615v2h4.615c2.721 0 5.13 1.563 6.275 4-1.144 2.437-3.554 4-6.275 4h-4.615v2h4.615c3.022 0 5.744-1.504 7.385-3.928 1.642 2.424 4.363 3.928 7.385 3.928h2.201l-2.293 2.293 1.414 1.414 4-4c.391-.391.391-1.023 0-1.414l-4-4-1.414 1.414 2.293 2.293h-2.201c-2.721 0-5.13-1.563-6.275-4 1.144-2.437 3.554-4 6.275-4h2.201l-2.293 2.293z"/></g></svg>