<svg id="Layer_3" enable-background="new 0 0 64 64" height="512" viewBox="0 0 64 64" width="512" xmlns="http://www.w3.org/2000/svg"><path d="m60 35c1.654 0 3-1.346 3-3v-12c0-2.757-2.243-5-5-5h-.54c.954-1.063 1.54-2.462 1.54-4v-7c0-1.654-1.346-3-3-3h-6c-1.654 0-3 1.346-3 3v1.586l-9.414 9.414h-1.126c.954-1.063 1.54-2.462 1.54-4v-7c0-1.654-1.346-3-3-3h-6c-1.654 0-3 1.346-3 3v7c0 1.538.586 2.937 1.54 4h-1.126l-9.414-9.414v-1.586c0-1.654-1.346-3-3-3h-6c-1.654 0-3 1.346-3 3v7c0 1.538.586 2.937 1.54 4h-.54c-2.757 0-5 2.243-5 5v12c0 1.654 1.346 3 3 3h1v2h-4v2h4v4h-4v2h4v4h-4v2h4v4h-3c-.553 0-1 .448-1 1v6c0 .552.447 1 1 1h60c.553 0 1-.448 1-1v-6c0-.552-.447-1-1-1h-3v-4h4v-2h-4v-4h4v-2h-4v-4h4v-2h-4v-2zm0-2h-1v-2h2v1c0 .551-.448 1-1 1zm1-13v9h-2v-9h-2v11h-8v-11h-2v9h-2v-9c0-1.654 1.346-3 3-3h1c0 2.206 1.794 4 4 4s4-1.794 4-4h1c1.654 0 3 1.346 3 3zm-12 35v-4h3v4zm-40-38.35c.627.222 1.298.35 2 .35.699 0 1.371-.126 2-.348v.348c0 1.103-.897 2-2 2s-2-.897-2-2zm4.414-8.65 1.586-1.586 1.586 1.586-1.586 1.586zm2.906 5.734 1.701 1.701c-.619-.275-1.3-.435-2.021-.435h-.539c.34-.379.623-.806.859-1.266zm.68 17.266h2v1c0 .551-.448 1-1 1h-1zm0 4h1c1.654 0 3-1.346 3-3v-12c0-.721-.16-1.402-.435-2.021l4.435 4.435v14.586h-2v-2h-2v2h-4zm10-2h10v4h-4v-2h-2v2h-4zm14 16h-2v-4h2zm2-4h4v4h-4zm-20 0h2v4h-2zm-2 4h-4v-4h4zm4-6h-2v-4h2zm2-4h4v4h-4zm0 6h4v4h-4zm6 0h4v4h-4zm6-2v-4h2v4zm-2 0h-4v-4h4zm-16-4v4h-4v-4zm-6 4h-3v-4h3zm0 2v4h-3v-4zm0 6v4h-3v-4zm2 0h4v4h-4zm6 0h2v4h-2zm4 0h4v4h-4zm6 0h4v4h-4zm6 0h2v4h-2zm4 0h4v4h-4zm6-2v-4h3v4zm0-6v-4h3v4zm-2 0h-4v-4h4zm-4-6v-2h-2v2h-2v-14.586l4.435-4.435c-.275.619-.435 1.3-.435 2.021v12c0 1.654 1.346 3 3 3h1v2zm7.586-29-1.586 1.586-1.586-1.586 1.586-1.586zm.414 8.652c.629.222 1.301.348 2 .348.702 0 1.373-.128 2-.35v.35c0 1.103-.897 2-2 2s-2-.897-2-2zm-3.32-2.918c.236.46.52.887.86 1.266h-.54c-.721 0-1.402.16-2.021.435zm-2.68 17.266h2v2h-1c-.552 0-1-.449-1-1zm5-28h6c.552 0 1 .449 1 1v7c0 2.206-1.794 4-4 4-1.76 0-3.279-1.149-3.799-2.787l3.506-3.506c.391-.391.391-1.023 0-1.414l-3-3c-.195-.195-.451-.293-.707-.293 0-.551.448-1 1-1zm-20 13.65c.627.223 1.298.35 2 .35s1.373-.128 2-.35v.35c0 1.103-.897 2-2 2s-2-.897-2-2zm-2-12.65c0-.551.448-1 1-1h6c.552 0 1 .449 1 1v7c0 2.206-1.794 4-4 4s-4-1.794-4-4zm-2 13h2c0 2.206 1.794 4 4 4s4-1.794 4-4h2c.266 0 .52-.105.707-.293l7.293-7.293 1.586 1.586-10.293 10.293c-.188.187-.293.442-.293.707v9h-10v-9c0-.265-.105-.52-.293-.707l-10.293-10.293 1.586-1.586 7.293 7.293c.187.188.441.293.707.293zm-19-13c0-.551.448-1 1-1h6c.552 0 1 .449 1 1-.256 0-.512.098-.707.293l-3 3c-.391.391-.391 1.023 0 1.414l3.506 3.506c-.52 1.638-2.039 2.787-3.799 2.787-2.206 0-4-1.794-4-4zm-1 13h1c0 2.206 1.794 4 4 4s4-1.794 4-4h1c1.654 0 3 1.346 3 3v9h-2v-9h-2v11h-8v-11h-2v9h-2v-9c0-1.654 1.346-3 3-3zm-2 16c-.552 0-1-.449-1-1v-1h2v2zm3 0h8v4h-3v-2h-2v2h-3zm0 6h3v4h-3zm0 6h3v4h-3zm0 6h3v4h-3zm54 10h-58v-4h58zm-4-6h-3v-4h3zm0-6h-3v-4h3zm0-6h-3v-4h3zm-3-6v-2h-2v2h-3v-4h8v4z"/></svg>