<svg id="Layer_3" enable-background="new 0 0 64 64" height="512" viewBox="0 0 64 64" width="512" xmlns="http://www.w3.org/2000/svg"><g><path d="m23 31h2v2h-2z"/><path d="m39 31h2v2h-2z"/><path d="m56 23h-4c-.553 0-1 .447-1 1v7h-6v-3c0-.553-.447-1-1-1h-24c-.553 0-1 .447-1 1v3h-11c-.553 0-1 .447-1 1v12c0 .553.447 1 1 1h4c.553 0 1-.447 1-1v-7h6v9c0 .553.447 1 1 1h7v6h-6v-3c0-.553-.447-1-1-1h-4c-.553 0-1 .447-1 1v12c0 .553.447 1 1 1h4c.553 0 1-.447 1-1v-3h22v3c0 .553.447 1 1 1h4c.553 0 1-.447 1-1v-12c0-.553-.447-1-1-1h-4c-.553 0-1 .447-1 1v3h-6v-6h7c.553 0 1-.447 1-1v-9h11c.553 0 1-.447 1-1v-12c0-.553-.447-1-1-1zm-37 38h-2v-10h2zm26-10h2v10h-2zm-33-16c-.553 0-1 .447-1 1v7h-2v-10h10v2zm31 22h-22v-2h22zm-8-4h-6v-6h6zm8-8h-22v-9-4-3h22zm12-10h-10v-2h7c.553 0 1-.447 1-1v-7h2z"/><path d="m24 43h16c.553 0 1-.447 1-1v-6h-2v5h-14v-5h-2v6c0 .553.447 1 1 1z"/><path d="m18 25c3.859 0 7-3.141 7-7v-11h9c.553 0 1-.447 1-1v-4c0-.553-.447-1-1-1h-14c-.553 0-1 .447-1 1v9h-1c-3.859 0-7 3.141-7 7s3.141 7 7 7zm0-12h2c.553 0 1-.447 1-1v-9h12v2h-9c-.553 0-1 .447-1 1v12c0 2.757-2.243 5-5 5s-5-2.243-5-5 2.243-5 5-5z"/><path d="m41 21c3.309 0 6-2.691 6-6v-8h5c.553 0 1-.447 1-1v-4c0-.553-.447-1-1-1h-10c-.553 0-1 .447-1 1v7c-3.309 0-6 2.691-6 6s2.691 6 6 6zm0-10h1c.553 0 1-.447 1-1v-7h8v2h-5c-.553 0-1 .447-1 1v9c0 2.206-1.794 4-4 4s-4-1.794-4-4 1.794-4 4-4z"/><path d="m40 14h2v2h-2z"/><path d="m17 17h2v2h-2z"/></g></svg>