<svg id="Layer_3" enable-background="new 0 0 64 64" height="512" viewBox="0 0 64 64" width="512" xmlns="http://www.w3.org/2000/svg"><path d="m45 30v-6c0-2.414-1.721-4.434-4-4.899v-14.601c0-1.93-1.57-3.5-3.5-3.5s-3.5 1.57-3.5 3.5v8.851c-.456-.218-.961-.351-1.5-.351-.98 0-1.864.407-2.5 1.058-.636-.651-1.52-1.058-2.5-1.058-.539 0-1.044.133-1.5.351v-2.851c0-1.93-1.57-3.5-3.5-3.5s-3.5 1.57-3.5 3.5v19.5c0 3.525 2.042 6.574 5 8.05v4.95h-1c-.552 0-1 .447-1 1v3.142c-1.72.447-3 1.999-3 3.858s1.28 3.411 3 3.858v8.142h2v-8.142c.79-.205 1.479-.643 2-1.24.734.84 1.8 1.382 3 1.382s2.266-.542 3-1.382c.734.84 1.8 1.382 3 1.382s2.266-.542 3-1.382c.521.597 1.21 1.035 2 1.24v8.142h2v-8.142c1.72-.447 3-1.999 3-3.858s-1.28-3.411-3-3.858v-3.142c0-.553-.448-1-1-1h-1v-4.95c2.958-1.476 5-4.525 5-8.05zm-9-25.5c0-.827.673-1.5 1.5-1.5s1.5.673 1.5 1.5v14.5h-3v-2.5c0-.171-.027-.335-.051-.5h.051zm-3.5 10.5c.827 0 1.5.673 1.5 1.5v2.851c-1.178.564-2 1.758-2 3.149 0 .936.375 1.784.976 2.412-.153.052-.311.088-.476.088-.827 0-1.5-.673-1.5-1.5v-7c0-.827.673-1.5 1.5-1.5zm-5 0c.827 0 1.5.673 1.5 1.5v7c0 .827-.673 1.5-1.5 1.5s-1.5-.673-1.5-1.5v-.5-6.5c0-.827.673-1.5 1.5-1.5zm12.5 30v2.142c-.79.205-1.479.643-2 1.24-.734-.84-1.8-1.382-3-1.382s-2.266.542-3 1.382c-.734-.84-1.8-1.382-3-1.382s-2.266.542-3 1.382c-.521-.597-1.21-1.035-2-1.24v-2.142zm-17 8c-1.103 0-2-.897-2-2s.897-2 2-2 2 .897 2 2-.897 2-2 2zm6 0c-1.103 0-2-.897-2-2s.897-2 2-2 2 .897 2 2-.897 2-2 2zm6 0c-1.103 0-2-.897-2-2s.897-2 2-2 2 .897 2 2-.897 2-2 2zm8-2c0 1.103-.897 2-2 2s-2-.897-2-2 .897-2 2-2 2 .897 2 2zm-5-8h-12v-4.232c.644.147 1.312.232 2 .232v-2c-3.86 0-7-3.141-7-7v-19.5c0-.827.673-1.5 1.5-1.5s1.5.673 1.5 1.5v6 6.5.5c0 1.93 1.57 3.5 3.5 3.5.98 0 1.864-.407 2.5-1.058.636.651 1.52 1.058 2.5 1.058.945 0 1.824-.394 2.476-1.053.172.026.344.053.524.053h2.5v2c-2.757 0-5 2.243-5 5v2h2v-2c0-1.654 1.346-3 3-3h1c.552 0 1-.447 1-1v-4c0-.553-.448-1-1-1h-3.5c-.827 0-1.5-.673-1.5-1.5s.673-1.5 1.5-1.5h4.5c1.654 0 3 1.346 3 3v6c0 3.859-3.14 7-7 7v2c.688 0 1.356-.085 2-.232z"/></svg>