<svg id="Layer_3" enable-background="new 0 0 64 64" height="512" viewBox="0 0 64 64" width="512" xmlns="http://www.w3.org/2000/svg"><g><path d="m44 56h2v2h-2z"/><path d="m44 48h2v2h-2z"/><path d="m18 48v4h-4v2h4v4h2v-4h4v-2h-4v-4z"/><path d="m48 52h2v2h-2z"/><path d="m40 52h2v2h-2z"/><path d="m29 50h6v2h-6z"/><path d="m59 1h-54c-.553 0-1 .448-1 1v30c0 .552.447 1 1 1h26v1c0 1.654 1.346 3 3 3h13c.552 0 1 .449 1 1s-.448 1-1 1h-13c-1.654 0-3 1.346-3 3v1h-12c-5.514 0-10 4.486-10 10s4.486 10 10 10c4.425 0 8.238-2.84 9.535-7h6.93c1.297 4.16 5.11 7 9.535 7 5.514 0 10-4.486 10-10s-4.486-10-10-10h-12v-1c0-.551.448-1 1-1h13c1.654 0 3-1.346 3-3s-1.346-3-3-3h-13c-.552 0-1-.449-1-1v-1h26c.553 0 1-.448 1-1v-30c0-.552-.447-1-1-1zm-6 52c0 4.411-3.589 8-8 8-3.756 0-6.961-2.559-7.794-6.222-.104-.455-.509-.778-.976-.778h-8.46c-.467 0-.871.323-.976.778-.833 3.663-4.038 6.222-7.794 6.222-4.411 0-8-3.589-8-8s3.589-8 8-8h26c4.411 0 8 3.589 8 8zm-47-22v-13h3c.409 0 .776-.249.929-.628l.709-1.773 1.379 7.581c.076.424.416.75.842.811.047.006.094.009.141.009.375 0 .724-.211.895-.553l2.723-5.447h3.382c.409 0 .776-.249.929-.628l1.071-2.68 1.071 2.679 1.857-.743-2-5c-.152-.379-.519-.628-.928-.628s-.776.249-.929.628l-1.748 4.372h-3.323c-.379 0-.725.214-.895.553l-1.658 3.317-1.464-8.048c-.079-.439-.439-.771-.883-.816-.45-.046-.863.21-1.029.624l-1.748 4.37h-2.323v-13h52v13h-2.323l-1.748-4.372c-.166-.414-.578-.67-1.029-.624-.443.045-.804.377-.883.816l-1.464 8.048-1.658-3.317c-.17-.337-.516-.551-.895-.551h-3.323l-1.748-4.372c-.153-.379-.52-.628-.929-.628s-.776.249-.929.628l-2 5 1.857.743 1.072-2.679 1.071 2.679c.153.38.52.629.929.629h3.382l2.724 5.447c.17.343.519.553.894.553.047 0 .094-.003.142-.01.426-.061.766-.387.842-.811l1.379-7.581.709 1.773c.152.38.519.629.928.629h3v13z"/><path d="m36 14h-3v-1.142c1.721-.447 3-2 3-3.858 0-2.206-1.794-4-4-4s-4 1.794-4 4c0 1.858 1.279 3.411 3 3.858v1.142h-2.323l-1.748-4.372-1.857.743 2 5c.152.38.519.629.928.629h3v2.382l-3.447 1.724c-.465.233-.675.783-.481 1.266l2 5 1.857-.743-1.658-4.146 1.729-.865v1.382c0 .379.214.725.553.895l4 2 .895-1.789-3.448-1.724v-2.382-3h2.382l1.724 3.447 1.789-.895-2-4c-.17-.338-.516-.552-.895-.552zm-6-5c0-1.103.897-2 2-2s2 .897 2 2-.897 2-2 2-2-.897-2-2z"/><path d="m29 46h6v2h-6z"/></g></svg>